<svg width="21" height="13" viewBox="0 0 21 13" fill="none" xmlns="http://www.w3.org/2000/svg">
<g clip-path="url(#clip0_36_131)">
<path d="M10.66 0.0150146C7.99358 0.0150146 6.32709 1.34821 5.66049 4.0146C6.66039 2.6814 7.82693 2.18146 9.16013 2.51475C9.92079 2.70492 10.4645 3.25675 11.0663 3.86761C12.0466 4.8627 13.1812 6.01439 15.6595 6.01439C18.3258 6.01439 19.9923 4.6812 20.6589 2.01481C19.659 3.348 18.4925 3.84795 17.1593 3.51465C16.3986 3.32449 15.855 2.77265 15.2532 2.16179C14.2728 1.16671 13.1382 0.0150146 10.66 0.0150146ZM5.66049 6.01439C2.9941 6.01439 1.32761 7.34759 0.661011 10.014C1.66091 8.68078 2.82745 8.18083 4.16065 8.51413C4.92131 8.7043 5.46499 9.25613 6.06678 9.86699C7.04713 10.8621 8.18175 12.0138 10.66 12.0138C13.3264 12.0138 14.9929 10.6806 15.6595 8.01418C14.6596 9.34738 13.493 9.84733 12.1598 9.51403C11.3992 9.32386 10.8555 8.77203 10.2537 8.16117C9.27334 7.16609 8.13872 6.01439 5.66049 6.01439Z" fill="url(#paint0_linear_36_131)"/>
</g>
<defs>
<linearGradient id="paint0_linear_36_131" x1="-54.8888" y1="383.975" x2="1672.26" y2="1379.81" gradientUnits="userSpaceOnUse">
<stop stop-color="#2298BD"/>
<stop offset="1" stop-color="#0ED7B5"/>
</linearGradient>
<clipPath id="clip0_36_131">
<rect width="19.9979" height="12.03" fill="white" transform="translate(0.661011 0.0150146)"/>
</clipPath>
</defs>
</svg>
