<svg width="21" height="21" viewBox="0 0 21 21" fill="none" xmlns="http://www.w3.org/2000/svg">
<path fill-rule="evenodd" clip-rule="evenodd" d="M13.3949 1.50884C13.5468 1.69735 13.6242 1.95174 13.7791 2.46054L17.1626 13.5754C15.9116 12.9264 14.5517 12.4584 13.1174 12.2058L10.9145 4.76124C10.8784 4.63943 10.7665 4.55587 10.6395 4.55587C10.5121 4.55587 10.4001 4.63987 10.3643 4.7621L8.18798 12.2021C6.7471 12.4535 5.38096 12.9224 4.12463 13.5737L7.52473 2.45796H7.52474C7.6801 1.95006 7.75777 1.6961 7.90965 1.50792C8.04371 1.34179 8.2181 1.21277 8.41618 1.13315C8.64056 1.04297 8.90612 1.04297 9.43726 1.04297H11.8658C12.3976 1.04297 12.6635 1.04297 12.8881 1.13334C13.0864 1.21312 13.2609 1.3424 13.3949 1.50884Z" fill="url(#paint0_linear_36_127)"/>
<path fill-rule="evenodd" clip-rule="evenodd" d="M13.7997 14.1043C13.2419 14.5813 12.1286 14.9066 10.8462 14.9066C9.27231 14.9066 7.95309 14.4166 7.60303 13.7576C7.47789 14.1352 7.44982 14.5675 7.44982 14.8436C7.44982 14.8436 7.36737 16.1994 8.31042 17.1426C8.31042 16.6529 8.70739 16.256 9.19706 16.256C10.0364 16.256 10.0354 16.9882 10.0347 17.5822C10.0346 17.6001 10.0346 17.6177 10.0346 17.6352C10.0346 18.5369 10.5857 19.3099 11.3695 19.6358C11.2524 19.3951 11.1867 19.1246 11.1867 18.839C11.1867 17.979 11.6916 17.6586 12.2784 17.2865C12.7453 16.9904 13.264 16.6615 13.6215 16.0015C13.8081 15.6571 13.914 15.2628 13.914 14.8436C13.914 14.5859 13.8739 14.3375 13.7997 14.1043Z" fill="#FF5D01"/>
<path fill-rule="evenodd" clip-rule="evenodd" d="M13.7997 14.1043C13.2419 14.5813 12.1286 14.9066 10.8462 14.9066C9.27231 14.9066 7.95309 14.4166 7.60303 13.7576C7.47789 14.1352 7.44982 14.5675 7.44982 14.8436C7.44982 14.8436 7.36737 16.1994 8.31042 17.1426C8.31042 16.6529 8.70739 16.256 9.19706 16.256C10.0364 16.256 10.0354 16.9882 10.0347 17.5822C10.0346 17.6001 10.0346 17.6177 10.0346 17.6352C10.0346 18.5369 10.5857 19.3099 11.3695 19.6358C11.2524 19.3951 11.1867 19.1246 11.1867 18.839C11.1867 17.979 11.6916 17.6586 12.2784 17.2865C12.7453 16.9904 13.264 16.6615 13.6215 16.0015C13.8081 15.6571 13.914 15.2628 13.914 14.8436C13.914 14.5859 13.8739 14.3375 13.7997 14.1043Z" fill="url(#paint1_linear_36_127)"/>
<defs>
<linearGradient id="paint0_linear_36_127" x1="14.4568" y1="0.453668" x2="10.6436" y2="13.5754" gradientUnits="userSpaceOnUse">
<stop stop-color="#000014"/>
<stop offset="1" stop-color="#150426"/>
</linearGradient>
<linearGradient id="paint1_linear_36_127" x1="16.3111" y1="10.2246" x2="13.0087" y2="17.138" gradientUnits="userSpaceOnUse">
<stop stop-color="#FF1639"/>
<stop offset="1" stop-color="#FF1639" stop-opacity="0"/>
</linearGradient>
</defs>
</svg>
