<svg width="19" height="17" viewBox="0 0 19 17" fill="none" xmlns="http://www.w3.org/2000/svg">
<g clip-path="url(#clip0_1_103)">
<path d="M1.405 0.804932H17.595C17.8335 0.804932 18.0623 0.899694 18.231 1.06837C18.3996 1.23705 18.4944 1.46583 18.4944 1.70438V16.0955C18.4944 16.334 18.3996 16.5628 18.231 16.7315C18.0623 16.9001 17.8335 16.9949 17.595 16.9949H1.405C1.16645 16.9949 0.937674 16.9001 0.768995 16.7315C0.600317 16.5628 0.505554 16.334 0.505554 16.0955V1.70438C0.505554 1.46583 0.600317 1.23705 0.768995 1.06837C0.937674 0.899694 1.16645 0.804932 1.405 0.804932ZM2.30444 2.60382V15.196H16.6956V2.60382H2.30444ZM5.00278 12.048H3.20389V5.75188H5.00278L6.80167 7.55077L8.60055 5.75188H10.3994V12.048H8.60055V8.45021L6.80167 10.2491L5.00278 8.45021V12.048ZM14.8967 9.34965H16.6956L13.9972 12.048L11.2989 9.34965H13.0978V5.75188H14.8967V9.34965Z" fill="black"/>
</g>
<defs>
<clipPath id="clip0_1_103">
<rect width="17.9889" height="16.19" fill="white" transform="translate(0.505554 0.804932)"/>
</clipPath>
</defs>
</svg>
