<svg width="19" height="19" viewBox="0 0 19 19" fill="none" xmlns="http://www.w3.org/2000/svg">
<g clip-path="url(#clip0_1_94)">
<path fill-rule="evenodd" clip-rule="evenodd" d="M11.9615 2.23086C12.0982 2.40053 12.1678 2.62948 12.3072 3.0874L15.3524 13.0907C14.2265 12.5067 13.0026 12.0854 11.7118 11.8582L9.72907 5.15803C9.69663 5.0484 9.59593 4.97319 9.48161 4.97319C9.36699 4.97319 9.2661 5.04879 9.23393 5.15881L7.27523 11.8548C5.97845 12.081 4.74892 12.503 3.61823 13.0892L6.67831 3.08508H6.67832C6.81815 2.62796 6.88805 2.39941 7.02474 2.23004C7.1454 2.08053 7.30235 1.96441 7.48062 1.89275C7.68255 1.81158 7.92156 1.81158 8.39959 1.81158H10.5853C11.0639 1.81158 11.3032 1.81158 11.5053 1.89292C11.6838 1.96473 11.8408 2.08108 11.9615 2.23086Z" fill="url(#paint0_linear_1_94)"/>
<path fill-rule="evenodd" clip-rule="evenodd" d="M12.3259 13.5668C11.8239 13.996 10.8219 14.2888 9.66774 14.2888C8.25119 14.2888 7.0639 13.8478 6.74884 13.2547C6.63621 13.5946 6.61096 13.9836 6.61096 14.2321C6.61096 14.2321 6.53675 15.4524 7.38549 16.3012C7.38549 15.8605 7.74276 15.5033 8.18347 15.5033C8.93885 15.5033 8.93799 16.1622 8.9373 16.6969C8.93729 16.7129 8.93726 16.7288 8.93726 16.7446C8.93726 17.5561 9.43326 18.2518 10.1386 18.5451C10.0333 18.3284 9.97419 18.085 9.97419 17.828C9.97419 17.054 10.4286 16.7657 10.9567 16.4307C11.3769 16.1642 11.8438 15.8682 12.1655 15.2742C12.3334 14.9643 12.4287 14.6094 12.4287 14.2321C12.4287 14.0002 12.3927 13.7766 12.3259 13.5668Z" fill="#FF5D01"/>
<path fill-rule="evenodd" clip-rule="evenodd" d="M12.3259 13.5668C11.8239 13.996 10.8219 14.2888 9.66774 14.2888C8.25119 14.2888 7.0639 13.8478 6.74884 13.2547C6.63621 13.5946 6.61096 13.9836 6.61096 14.2321C6.61096 14.2321 6.53675 15.4524 7.38549 16.3012C7.38549 15.8605 7.74276 15.5033 8.18347 15.5033C8.93885 15.5033 8.93799 16.1622 8.9373 16.6969C8.93729 16.7129 8.93726 16.7288 8.93726 16.7446C8.93726 17.5561 9.43326 18.2518 10.1386 18.5451C10.0333 18.3284 9.97419 18.085 9.97419 17.828C9.97419 17.054 10.4286 16.7657 10.9567 16.4307C11.3769 16.1642 11.8438 15.8682 12.1655 15.2742C12.3334 14.9643 12.4287 14.6094 12.4287 14.2321C12.4287 14.0002 12.3927 13.7766 12.3259 13.5668Z" fill="url(#paint1_linear_1_94)"/>
</g>
<defs>
<linearGradient id="paint0_linear_1_94" x1="12.9171" y1="1.28121" x2="9.4853" y2="13.0907" gradientUnits="userSpaceOnUse">
<stop stop-color="#000014"/>
<stop offset="1" stop-color="#150426"/>
</linearGradient>
<linearGradient id="paint1_linear_1_94" x1="14.5861" y1="10.075" x2="11.6139" y2="16.2971" gradientUnits="userSpaceOnUse">
<stop stop-color="#FF1639"/>
<stop offset="1" stop-color="#FF1639" stop-opacity="0"/>
</linearGradient>
<clipPath id="clip0_1_94">
<rect width="18" height="18" fill="white" transform="translate(0.5 0.899963)"/>
</clipPath>
</defs>
</svg>
