<svg width="19" height="12" viewBox="0 0 19 12" fill="none" xmlns="http://www.w3.org/2000/svg">
<g clip-path="url(#clip0_1_99)">
<path d="M9.5 0.48584C7.1 0.48584 5.6 1.68584 5 4.08584C5.9 2.88584 6.95 2.43584 8.15 2.73584C8.83467 2.90701 9.32403 3.40371 9.8657 3.95354C10.7481 4.84921 11.7694 5.88584 14 5.88584C16.4 5.88584 17.9 4.68584 18.5 2.28584C17.6 3.48584 16.55 3.93584 15.35 3.63584C14.6653 3.46467 14.176 2.96797 13.6343 2.41814C12.7519 1.52247 11.7306 0.48584 9.5 0.48584ZM5 5.88584C2.6 5.88584 1.1 7.08584 0.5 9.48584C1.4 8.28584 2.45 7.83584 3.65 8.13584C4.33467 8.30701 4.82403 8.80371 5.3657 9.35354C6.2481 10.2492 7.26937 11.2858 9.5 11.2858C11.9 11.2858 13.4 10.0858 14 7.68584C13.1 8.88584 12.05 9.33584 10.85 9.03584C10.1653 8.86467 9.67597 8.36797 9.1343 7.81814C8.2519 6.92247 7.23063 5.88584 5 5.88584Z" fill="url(#paint0_linear_1_99)"/>
</g>
<defs>
<linearGradient id="paint0_linear_1_99" x1="-49.5" y1="346.086" x2="1505.09" y2="1242.43" gradientUnits="userSpaceOnUse">
<stop stop-color="#2298BD"/>
<stop offset="1" stop-color="#0ED7B5"/>
</linearGradient>
<clipPath id="clip0_1_99">
<rect width="18" height="10.8281" fill="white" transform="translate(0.5 0.48584)"/>
</clipPath>
</defs>
</svg>
