<svg width="13" height="9" viewBox="0 0 13 9" fill="none" xmlns="http://www.w3.org/2000/svg">
<path d="M10.3349 0.789423C10.3319 0.783485 10.3268 0.778832 10.3206 0.776298C9.60581 0.448335 8.85148 0.214471 8.0765 0.0805602C8.06946 0.0792512 8.06219 0.0801955 8.05572 0.0832588C8.04924 0.086322 8.0439 0.0913483 8.04045 0.0976227C7.93773 0.284052 7.84449 0.475545 7.76107 0.671373C6.92569 0.544563 6.07596 0.544563 5.24059 0.671373C5.15662 0.475048 5.06188 0.283507 4.9568 0.0976227C4.9532 0.0914846 4.94783 0.0865742 4.9414 0.0835308C4.93496 0.0804875 4.92776 0.0794523 4.92073 0.0805602C4.14568 0.21419 3.3913 0.448071 2.67658 0.776317C2.67046 0.77891 2.6653 0.783339 2.6618 0.788992C1.23251 2.92345 0.840973 5.00544 1.03305 7.06164C1.03359 7.06668 1.03514 7.07155 1.0376 7.07598C1.04006 7.08041 1.04339 7.0843 1.04739 7.08742C1.87966 7.70365 2.81055 8.17402 3.80036 8.47846C3.80733 8.48055 3.81477 8.48046 3.82169 8.47819C3.8286 8.47593 3.83466 8.4716 3.83904 8.46579C4.05163 8.17653 4.24 7.87022 4.40224 7.55C4.40446 7.5456 4.40574 7.54079 4.40597 7.53587C4.4062 7.53094 4.40539 7.52603 4.40358 7.52144C4.40178 7.51686 4.39902 7.51271 4.3955 7.50927C4.39197 7.50582 4.38776 7.50317 4.38313 7.50147C4.08608 7.38782 3.79851 7.25081 3.5231 7.09173C3.5181 7.08879 3.5139 7.08466 3.51087 7.07971C3.50784 7.07476 3.50608 7.06914 3.50573 7.06335C3.50539 7.05756 3.50648 7.05177 3.5089 7.04649C3.51133 7.04122 3.51501 7.03663 3.51964 7.03312C3.57742 6.98982 3.63525 6.94479 3.69043 6.8993C3.69533 6.89526 3.70126 6.89267 3.70756 6.89182C3.71385 6.89098 3.72026 6.8919 3.72605 6.8945C5.53035 7.71794 7.48374 7.71794 9.26668 6.8945C9.27249 6.89174 9.27896 6.89068 9.28535 6.89145C9.29174 6.89223 9.29777 6.8948 9.30275 6.89887C9.35795 6.94435 9.41576 6.98982 9.47398 7.03312C9.47863 7.03659 9.48234 7.04116 9.48481 7.04641C9.48727 7.05166 9.4884 7.05744 9.4881 7.06323C9.4878 7.06903 9.48608 7.07466 9.48308 7.07963C9.48009 7.0846 9.47592 7.08875 9.47094 7.09173C9.19616 7.25215 8.90833 7.38907 8.6105 7.50104C8.60588 7.5028 8.60168 7.50552 8.59818 7.50901C8.59467 7.51251 8.59195 7.5167 8.59018 7.52133C8.58841 7.52595 8.58763 7.53089 8.5879 7.53583C8.58818 7.54077 8.58949 7.5456 8.59175 7.55C8.75671 7.86844 8.9448 8.17436 9.15452 8.46528C9.15877 8.47125 9.1648 8.47573 9.17174 8.47808C9.17868 8.48044 9.18619 8.48055 9.1932 8.4784C10.1848 8.17499 11.1173 7.70458 11.9506 7.08742C11.9547 7.08446 11.958 7.08066 11.9605 7.07629C11.963 7.07192 11.9645 7.06707 11.965 7.06207C12.1949 4.68489 11.58 2.61997 10.3349 0.789423ZM4.67169 5.80962C4.12847 5.80962 3.68087 5.31112 3.68087 4.69889C3.68087 4.08667 4.11979 3.58812 4.67169 3.58812C5.22791 3.58812 5.67118 4.091 5.6625 4.69885C5.6625 5.31112 5.22356 5.80962 4.67169 5.80962ZM8.33507 5.80962C7.79186 5.80962 7.34426 5.31112 7.34426 4.69889C7.34426 4.08667 7.78318 3.58812 8.33507 3.58812C8.89132 3.58812 9.33457 4.091 9.32589 4.69885C9.32589 5.31112 8.89132 5.80962 8.33507 5.80962Z" fill="white"/>
</svg>
