<svg width="165" height="33" viewBox="0 0 165 33" fill="none" xmlns="http://www.w3.org/2000/svg">
<g clip-path="url(#clip0_1_1115)">
<path d="M42.8033 22.9704C43.8933 22.9704 44.692 22.7637 45.1995 22.3502C45.7069 21.918 45.9606 21.3823 45.9606 20.7433C45.9606 20.1607 45.7633 19.7003 45.3686 19.362C44.9739 19.0049 44.3726 18.7042 43.5644 18.4599L41.7602 17.8961C41.0461 17.6706 40.3977 17.4168 39.8151 17.1349C39.2324 16.853 38.7345 16.5241 38.321 16.1483C37.9075 15.7536 37.588 15.3026 37.3625 14.7951C37.137 14.2689 37.0242 13.6487 37.0242 12.9346C37.0242 11.4123 37.5974 10.2095 38.7438 9.32618C39.8903 8.42409 41.4595 7.97304 43.4516 7.97304C44.241 7.97304 44.9646 8.03879 45.6223 8.17037C46.2989 8.28313 46.8815 8.45228 47.3701 8.6778C47.8587 8.8845 48.2347 9.14767 48.4977 9.46713C48.7796 9.7866 48.9206 10.1437 48.9206 10.5384C48.9206 10.9142 48.8267 11.2431 48.6387 11.525C48.4695 11.7881 48.2534 12.0043 47.9903 12.1734C47.5393 11.854 46.9379 11.5814 46.1861 11.3559C45.4532 11.1116 44.645 10.9894 43.7617 10.9894C42.7844 10.9894 42.0421 11.1679 41.5347 11.525C41.0273 11.8633 40.7736 12.3332 40.7736 12.9346C40.7736 13.4232 40.9427 13.7991 41.281 14.0622C41.6381 14.3253 42.1924 14.579 42.9442 14.8233L44.5511 15.3308C46.1861 15.8194 47.4547 16.4866 48.3568 17.3323C49.2589 18.178 49.7099 19.3244 49.7099 20.7715C49.7099 21.542 49.5596 22.2468 49.2589 22.8858C48.9582 23.5248 48.5166 24.0792 47.9339 24.549C47.3701 25.0001 46.656 25.3477 45.7915 25.5921C44.9457 25.8552 43.9779 25.9868 42.8878 25.9868C42.0233 25.9868 41.2246 25.9116 40.4916 25.7612C39.7775 25.6109 39.1573 25.4136 38.6311 25.1692C38.1048 24.9061 37.6914 24.6054 37.3907 24.2671C37.1088 23.91 36.9678 23.5248 36.9678 23.1113C36.9678 22.6791 37.09 22.3126 37.3343 22.0119C37.5974 21.6924 37.8981 21.4575 38.2364 21.3071C38.7063 21.7206 39.3265 22.1058 40.097 22.4629C40.8675 22.8012 41.7696 22.9704 42.8033 22.9704Z" fill="white"/>
<path d="M55.8585 21.3917C55.8585 21.9931 56.037 22.4254 56.3941 22.6885C56.77 22.9516 57.2868 23.0831 57.9446 23.0831C58.2641 23.0831 58.5836 23.0456 58.9031 22.9704C59.2414 22.8952 59.542 22.8012 59.8052 22.6885C59.9555 22.8388 60.0777 23.0268 60.1717 23.2523C60.2844 23.459 60.3408 23.7033 60.3408 23.9852C60.3408 24.549 60.0871 25.0189 59.5797 25.3948C59.0722 25.7519 58.2547 25.9304 57.1271 25.9304C55.6424 25.9304 54.4677 25.6015 53.6033 24.9437C52.7576 24.2671 52.3347 23.1583 52.3347 21.6172V8.67781C52.485 8.64025 52.7012 8.59324 52.9831 8.53686C53.2837 8.48048 53.6033 8.45229 53.9416 8.45229C54.5993 8.45229 55.0786 8.57442 55.3793 8.81876C55.6988 9.0631 55.8585 9.49533 55.8585 10.1155V12.4553H60.0025C60.0965 12.6057 60.181 12.803 60.2562 13.0473C60.3314 13.2917 60.369 13.5548 60.369 13.8367C60.369 14.3253 60.2562 14.6824 60.0307 14.9079C59.8052 15.1334 59.5045 15.2462 59.1286 15.2462H55.8585V21.3917Z" fill="white"/>
<path d="M68.1974 23.2523C68.7424 23.2523 69.2404 23.2053 69.6915 23.1113C70.1425 22.9986 70.4714 22.867 70.6781 22.7167V19.5875L67.9437 19.8412C67.1919 19.9164 66.6187 20.0856 66.224 20.3487C65.8294 20.593 65.632 20.9877 65.632 21.5327C65.632 22.0777 65.8294 22.5005 66.224 22.8012C66.6375 23.102 67.2953 23.2523 68.1974 23.2523ZM68.0846 11.7788C69.9264 11.7788 71.3923 12.1734 72.4823 12.9628C73.5911 13.7521 74.1456 14.9737 74.1456 16.6275V23.1395C74.1456 23.5906 74.0328 23.9477 73.8073 24.2108C73.5817 24.4739 73.2998 24.7088 72.9616 24.9155C72.4353 25.235 71.7682 25.4887 70.96 25.6767C70.1519 25.8646 69.231 25.9586 68.1974 25.9586C66.318 25.9586 64.8333 25.6015 63.7433 24.8873C62.672 24.1544 62.1364 23.0643 62.1364 21.6172C62.1364 20.358 62.5311 19.3996 63.3204 18.7418C64.1286 18.0652 65.2938 17.6518 66.816 17.5014L70.6781 17.1068V16.5993C70.6781 15.8852 70.415 15.359 69.8888 15.0207C69.3814 14.6824 68.6578 14.5132 67.7181 14.5132C66.9852 14.5132 66.271 14.6072 65.5757 14.7951C64.8803 14.9643 64.2601 15.1804 63.7151 15.4435C63.5084 15.2932 63.3298 15.0959 63.1795 14.8515C63.0479 14.5884 62.9821 14.3065 62.9821 14.0058C62.9821 13.63 63.0667 13.3292 63.2358 13.1037C63.4238 12.8594 63.7151 12.6433 64.1097 12.4553C64.6547 12.2298 65.2749 12.0607 65.9703 11.9479C66.6657 11.8351 67.3705 11.7788 68.0846 11.7788Z" fill="white"/>
<path d="M80.9526 21.3917C80.9526 21.9931 81.1309 22.4254 81.4882 22.6885C81.8638 22.9516 82.3812 23.0831 83.0387 23.0831C83.3579 23.0831 83.6779 23.0456 83.9971 22.9704C84.3354 22.8952 84.6364 22.8012 84.8992 22.6885C85.0493 22.8388 85.172 23.0268 85.2657 23.2523C85.3785 23.459 85.4349 23.7033 85.4349 23.9852C85.4349 24.549 85.1811 25.0189 84.6737 25.3948C84.1663 25.7519 83.3488 25.9304 82.2212 25.9304C80.7362 25.9304 79.5621 25.6015 78.6973 24.9437C77.8516 24.2671 77.4288 23.1583 77.4288 21.6172V8.67781C77.5789 8.64025 77.7952 8.59324 78.0772 8.53686C78.3781 8.48048 78.6973 8.45229 79.0356 8.45229C79.6932 8.45229 80.1724 8.57442 80.4733 8.81876C80.7926 9.0631 80.9526 9.49533 80.9526 10.1155V12.4553H85.0966C85.1903 12.6057 85.2749 12.803 85.3503 13.0473C85.4257 13.2917 85.4631 13.5548 85.4631 13.8367C85.4631 14.3253 85.3503 14.6824 85.1248 14.9079C84.8992 15.1334 84.5983 15.2462 84.2227 15.2462H80.9526V21.3917Z" fill="white"/>
<path d="M88.0779 12.2862C88.2288 12.2486 88.4444 12.2016 88.7263 12.1452C89.0273 12.0889 89.3465 12.0607 89.6848 12.0607C90.3614 12.0607 90.8505 12.1828 91.1507 12.4271C91.4707 12.6715 91.6299 13.1037 91.6299 13.7239V25.5075C91.4798 25.5451 91.2543 25.5921 90.9534 25.6485C90.6715 25.7049 90.3614 25.733 90.0231 25.733C89.3465 25.733 88.849 25.6109 88.529 25.3666C88.2288 25.1222 88.0779 24.69 88.0779 24.0698V12.2862ZM87.796 8.19857C87.796 7.65356 87.9842 7.19311 88.3598 6.81724C88.7545 6.42257 89.2528 6.22523 89.8539 6.22523C90.4558 6.22523 90.9442 6.42257 91.3198 6.81724C91.6962 7.19311 91.8836 7.65356 91.8836 8.19857C91.8836 8.76238 91.6962 9.24162 91.3198 9.63628C90.9442 10.0121 90.4558 10.2001 89.8539 10.2001C89.2528 10.2001 88.7545 10.0121 88.3598 9.63628C87.9842 9.24162 87.796 8.76238 87.796 8.19857Z" fill="white"/>
<path d="M101.94 14.626C101.376 14.626 100.85 14.7199 100.361 14.9079C99.8912 15.0959 99.4775 15.3683 99.121 15.7254C98.7827 16.0825 98.5099 16.5241 98.3034 17.0504C98.0962 17.5766 97.9933 18.1874 97.9933 18.8828C97.9933 20.2735 98.3598 21.326 99.0928 22.0401C99.8257 22.7355 100.774 23.0831 101.94 23.0831C102.598 23.0831 103.161 22.9986 103.631 22.8294C104.12 22.6415 104.552 22.4441 104.928 22.2374C105.191 22.4254 105.398 22.6415 105.548 22.8858C105.718 23.1302 105.802 23.4121 105.802 23.7315C105.802 24.3705 105.426 24.8967 104.674 25.3102C103.922 25.7237 102.908 25.9304 101.63 25.9304C100.559 25.9304 99.572 25.7894 98.6699 25.5075C97.7861 25.2068 97.0249 24.7652 96.3865 24.1826C95.7472 23.5812 95.2489 22.8388 94.8924 21.9555C94.5541 21.0722 94.3849 20.0479 94.3849 18.8828C94.3849 17.6988 94.5724 16.6651 94.9488 15.7818C95.3244 14.8797 95.8318 14.1374 96.471 13.5548C97.1286 12.9534 97.8897 12.5117 98.7545 12.2298C99.6185 11.9291 100.54 11.7788 101.517 11.7788C102.776 11.7788 103.782 12.0043 104.534 12.4553C105.285 12.8876 105.661 13.4232 105.661 14.0622C105.661 14.3629 105.577 14.6354 105.407 14.8797C105.257 15.1241 105.078 15.3214 104.872 15.4717C104.495 15.265 104.073 15.077 103.603 14.9079C103.152 14.7199 102.598 14.626 101.94 14.626Z" fill="white"/>
<path d="M112.043 25.5075C111.874 25.5451 111.648 25.5921 111.366 25.6485C111.084 25.7048 110.764 25.733 110.408 25.733C109.749 25.733 109.261 25.6109 108.942 25.3666C108.622 25.1222 108.463 24.69 108.463 24.0698V7.2119C108.613 7.15552 108.829 7.10853 109.111 7.07095C109.411 7.01456 109.74 6.98637 110.098 6.98637C110.755 6.98637 111.244 7.10853 111.564 7.35285C111.883 7.59717 112.043 8.02942 112.043 8.64961V12.5399C112.456 12.3332 112.926 12.1546 113.452 12.0043C113.997 11.854 114.598 11.7788 115.257 11.7788C116.966 11.7788 118.329 12.2204 119.344 13.1037C120.359 13.987 120.866 15.3214 120.866 17.1068V25.5075C120.716 25.5451 120.49 25.5921 120.19 25.6485C119.908 25.7048 119.598 25.733 119.26 25.733C118.583 25.733 118.085 25.6109 117.765 25.3666C117.445 25.1222 117.286 24.69 117.286 24.0698V17.2759C117.286 16.3362 117.042 15.6597 116.553 15.2462C116.064 14.814 115.426 14.5978 114.636 14.5978C114.129 14.5978 113.659 14.6824 113.227 14.8515C112.794 15.0018 112.399 15.1898 112.043 15.4153V25.5075Z" fill="white"/>
<path d="M136.578 22.914C136.578 23.3462 136.502 23.7127 136.352 24.0134C136.202 24.2953 135.929 24.5491 135.535 24.7746C134.99 25.1129 134.294 25.3948 133.449 25.6203C132.622 25.8458 131.673 25.9586 130.601 25.9586C129.624 25.9586 128.741 25.8458 127.951 25.6203C127.162 25.4136 126.486 25.0847 125.922 24.6336C125.358 24.1826 124.926 23.6094 124.625 22.914C124.324 22.2186 124.174 21.3917 124.174 20.4332V12.2298C124.324 12.1734 124.54 12.1264 124.822 12.0889C125.123 12.0325 125.452 12.0043 125.809 12.0043C126.466 12.0043 126.956 12.1264 127.275 12.3708C127.594 12.5963 127.754 13.0285 127.754 13.6675V20.3769C127.754 21.3542 127.999 22.0589 128.487 22.4911C128.994 22.9046 129.708 23.1113 130.63 23.1113C131.212 23.1113 131.701 23.055 132.095 22.9422C132.509 22.8294 132.819 22.7073 133.026 22.5757V12.2298C133.176 12.1734 133.392 12.1264 133.674 12.0889C133.975 12.0325 134.294 12.0043 134.633 12.0043C135.309 12.0043 135.798 12.1264 136.098 12.3708C136.418 12.5963 136.578 13.0285 136.578 13.6675V22.914Z" fill="white"/>
<path d="M148.711 16.9376C148.711 16.1295 148.476 15.5375 148.006 15.1616C147.555 14.7858 146.935 14.5978 146.146 14.5978C145.601 14.5978 145.094 14.6636 144.623 14.7951C144.172 14.9267 143.778 15.0959 143.439 15.3026V25.5075C143.27 25.5451 143.045 25.5921 142.763 25.6485C142.481 25.7049 142.162 25.733 141.804 25.733C141.147 25.733 140.658 25.6109 140.338 25.3666C140.019 25.1222 139.859 24.69 139.859 24.0698V15.0207C139.859 14.5696 139.953 14.2031 140.141 13.9212C140.329 13.6393 140.62 13.3668 141.015 13.1037C141.56 12.7279 142.284 12.4178 143.186 12.1734C144.088 11.9103 145.084 11.7788 146.174 11.7788C148.11 11.7788 149.604 12.211 150.656 13.0755C151.727 13.9212 152.263 15.171 152.263 16.8249V25.5075C152.113 25.5451 151.887 25.5921 151.586 25.6485C151.305 25.7049 150.994 25.733 150.656 25.733C149.98 25.733 149.481 25.6109 149.162 25.3666C148.861 25.1222 148.711 24.69 148.711 24.0698V16.9376Z" fill="white"/>
<path d="M159.152 21.3917C159.152 21.9931 159.331 22.4254 159.688 22.6885C160.064 22.9516 160.581 23.0831 161.238 23.0831C161.558 23.0831 161.878 23.0456 162.197 22.9704C162.535 22.8952 162.836 22.8012 163.099 22.6885C163.25 22.8388 163.372 23.0268 163.465 23.2523C163.578 23.459 163.635 23.7033 163.635 23.9852C163.635 24.549 163.381 25.0189 162.873 25.3948C162.366 25.7519 161.548 25.9304 160.421 25.9304C158.937 25.9304 157.762 25.6015 156.897 24.9437C156.051 24.2671 155.628 23.1583 155.628 21.6172V8.67781C155.779 8.64025 155.995 8.59324 156.277 8.53686C156.578 8.48048 156.897 8.45229 157.235 8.45229C157.894 8.45229 158.373 8.57442 158.673 8.81876C158.993 9.0631 159.152 9.49533 159.152 10.1155V12.4553H163.296C163.391 12.6057 163.475 12.803 163.55 13.0473C163.625 13.2917 163.663 13.5548 163.663 13.8367C163.663 14.3253 163.55 14.6824 163.324 14.9079C163.099 15.1334 162.799 15.2462 162.422 15.2462H159.152V21.3917Z" fill="white"/>
<path d="M27.9089 4.81629C21.6605 -1.4321 11.5299 -1.4321 5.28151 4.81629C-0.966878 11.0647 -0.966886 21.1953 5.2815 27.4437C11.5299 33.6921 21.6605 33.6921 27.9089 27.4437C34.1573 21.1953 34.1574 11.0647 27.9089 4.81629Z" fill="url(#paint0_linear_1_1115)"/>
<path d="M13.5476 15.6488V17.3168C13.5476 17.3168 9.42464 17.3439 9.08856 17.3279C8.57588 17.3041 8.22975 16.9655 8.21489 16.543C8.19887 16.066 8.50769 15.7403 9.05588 15.6806C9.29466 15.6544 9.53748 15.662 9.91325 15.6488H13.5476Z" fill="white"/>
<path d="M16.916 15.6488V17.3168C16.916 17.3168 13.01 17.3439 12.6916 17.3279C12.2059 17.3041 11.8779 16.9655 11.8638 16.543C11.8488 16.066 12.1412 15.7403 12.6606 15.6806C12.8868 15.6544 13.1169 15.662 13.4729 15.6488H16.916Z" fill="white"/>
<path d="M21.1265 15.6488V17.3168C21.1265 17.3168 17.0035 17.3439 16.6674 17.3279C16.1547 17.3041 15.8085 16.9655 15.7937 16.543C15.7777 16.066 16.0866 15.7403 16.6347 15.6806C16.8735 15.6544 17.1164 15.662 17.4921 15.6488H21.1265Z" fill="white"/>
<path d="M19.7228 17.333V15.665C19.7228 15.665 23.8458 15.6379 24.1818 15.6539C24.6946 15.6777 25.0407 16.0163 25.0556 16.4388C25.0716 16.9158 24.7628 17.2415 24.2146 17.3012C23.9758 17.3273 23.733 17.3198 23.3572 17.333H19.7228Z" fill="white"/>
<path d="M17.1966 10.0378C17.1966 10.0378 19.2205 10.0378 23.854 10.0378C24.0829 10.0378 24.3204 10.0091 24.5303 10.1282C24.8353 10.3011 25.0409 10.5471 25.0556 10.92C25.0702 11.3154 24.8569 11.5779 24.5442 11.764C23.6397 12.3011 22.7302 12.8278 21.8214 13.3571C21.5355 13.524 21.2522 13.6969 20.9577 13.8482C20.5084 14.0794 20.0169 13.956 19.7777 13.5683C19.5081 13.1303 19.5963 12.6731 20.0307 12.3463C20.2199 12.2037 20.4307 12.0908 20.7434 11.8926C18.1157 11.8926 17.1966 11.8926 17.1966 11.8926V10.0378Z" fill="white"/>
<path d="M14.951 10.0348H18.6002V11.9996H14.951V10.0348Z" fill="white"/>
<path d="M16.0739 10.0378C16.0739 10.0378 14.0499 10.0378 9.41648 10.0378C9.18753 10.0378 8.94997 10.0091 8.74006 10.1282C8.43515 10.3011 8.22959 10.5471 8.21488 10.92C8.20022 11.3154 8.41359 11.5779 8.72627 11.764C9.63066 12.3011 10.5403 12.8278 11.449 13.3571C11.7349 13.524 12.0182 13.6969 12.3128 13.8482C12.762 14.0794 13.2535 13.956 13.4928 13.5683C13.7623 13.1303 13.6742 12.6731 13.2396 12.3463C13.0505 12.2037 12.8397 12.0908 12.527 11.8926C15.1548 11.8926 16.0739 11.8926 16.0739 11.8926V10.0378Z" fill="white"/>
<path d="M16.074 22.944C16.074 22.944 14.0501 22.944 9.41666 22.944C9.18778 22.944 8.95022 22.9727 8.74031 22.8537C8.4354 22.6807 8.22976 22.4347 8.21513 22.0618C8.20042 21.6664 8.41376 21.4039 8.72645 21.2179C9.6309 20.6807 10.5405 20.154 11.4492 19.6247C11.7351 19.4579 12.0185 19.2849 12.313 19.1337C12.7622 18.9024 13.2537 19.0259 13.493 19.4135C13.7625 19.8515 13.6744 20.3087 13.2399 20.6355C13.0507 20.7781 12.84 20.8911 12.5272 21.0892C15.1549 21.0892 16.074 21.0892 16.074 21.0892V22.944Z" fill="white"/>
<path d="M18.3196 22.9471H14.9511V20.9821H18.3196V22.9471Z" fill="white"/>
<path d="M17.1968 22.944C17.1968 22.944 19.2207 22.944 23.8542 22.944C24.0831 22.944 24.3206 22.9727 24.5306 22.8537C24.8355 22.6807 25.041 22.4347 25.0557 22.0618C25.0704 21.6664 24.857 21.4039 24.5443 21.2179C23.64 20.6807 22.7304 20.154 21.8216 19.6247C21.5357 19.4579 21.2524 19.2849 20.9578 19.1337C20.5086 18.9024 20.0171 19.0259 19.7779 19.4135C19.5084 19.8515 19.5965 20.3087 20.031 20.6355C20.2202 20.7781 20.4309 20.8911 20.7436 21.0892C18.1159 21.0892 17.1968 21.0892 17.1968 21.0892V22.944Z" fill="white"/>
</g>
<defs>
<linearGradient id="paint0_linear_1_1115" x1="0.595217" y1="16.13" x2="32.5952" y2="16.13" gradientUnits="userSpaceOnUse">
<stop stop-color="#05966A"/>
<stop offset="1" stop-color="#24B0C7"/>
</linearGradient>
<clipPath id="clip0_1_1115">
<rect width="164" height="32" fill="white" transform="translate(0.5 0.129997)"/>
</clipPath>
</defs>
</svg>
