<svg width="19" height="19" viewBox="0 0 19 19" fill="none" xmlns="http://www.w3.org/2000/svg">
<g clip-path="url(#clip0_1_975)">
<g filter="url(#filter0_d_1_975)">
<path d="M2.92418 9.44109C2.92418 10.0829 2.40388 10.6032 1.76208 10.6032C1.12028 10.6032 0.599976 10.0829 0.599976 9.44119C0.599976 8.79919 1.12028 8.27899 1.76208 8.27899C2.40388 8.27899 2.92418 8.79929 2.92418 9.44109Z" fill="#63B3ED"/>
<path fill-rule="evenodd" clip-rule="evenodd" d="M1.76208 10.4331C2.30998 10.4331 2.75408 9.98899 2.75408 9.44109C2.75408 8.89319 2.30998 8.44909 1.76208 8.44909C1.21418 8.44909 0.770076 8.89319 0.770076 9.44109C0.770076 9.98899 1.21418 10.4331 1.76208 10.4331ZM1.76208 10.6032C2.40388 10.6032 2.92418 10.0829 2.92418 9.44119C2.92418 8.79919 2.40388 8.27899 1.76208 8.27899C1.12028 8.27899 0.599976 8.79929 0.599976 9.44109C0.599976 10.0829 1.12028 10.6032 1.76208 10.6032Z" fill="#0F172A"/>
<path d="M18.4 9.44109C18.4 10.0829 17.8797 10.6032 17.2379 10.6032C16.5961 10.6032 16.0758 10.0829 16.0758 9.44119C16.0758 8.79919 16.5961 8.27899 17.2379 8.27899C17.8797 8.27899 18.4 8.79929 18.4 9.44109Z" fill="#63B3ED"/>
<path fill-rule="evenodd" clip-rule="evenodd" d="M17.2379 10.4331C17.7858 10.4331 18.2299 9.98899 18.2299 9.44109C18.2299 8.89319 17.7858 8.44909 17.2379 8.44909C16.69 8.44909 16.2458 8.89319 16.2458 9.44109C16.2458 9.98899 16.69 10.4331 17.2379 10.4331ZM17.2379 10.6032C17.8797 10.6032 18.4 10.0829 18.4 9.44119C18.4 8.79919 17.8797 8.27899 17.2379 8.27899C16.5961 8.27899 16.0758 8.79929 16.0758 9.44109C16.0758 10.0829 16.5961 10.6032 17.2379 10.6032Z" fill="#0F172A"/>
<path d="M6.72227 9.46947C6.72227 11.0348 5.45327 12.3038 3.88787 12.3038C2.32247 12.3038 1.05347 11.0348 1.05347 9.46947C1.05347 7.90407 2.32247 6.63507 3.88787 6.63507C5.45327 6.63507 6.72227 7.90407 6.72227 9.46947Z" fill="#F1F5F9"/>
<path fill-rule="evenodd" clip-rule="evenodd" d="M3.88787 11.9637C5.26537 11.9637 6.38217 10.847 6.38217 9.46947C6.38217 8.09187 5.26537 6.97517 3.88787 6.97517C2.51027 6.97517 1.39357 8.09187 1.39357 9.46947C1.39357 10.847 2.51027 11.9637 3.88787 11.9637ZM3.88787 12.3038C5.45327 12.3038 6.72227 11.0348 6.72227 9.46947C6.72227 7.90407 5.45327 6.63507 3.88787 6.63507C2.32247 6.63507 1.05347 7.90407 1.05347 9.46947C1.05347 11.0348 2.32247 12.3038 3.88787 12.3038Z" fill="#0F172A"/>
<path d="M17.9464 9.46947C17.9464 11.0348 16.6774 12.3038 15.112 12.3038C13.5466 12.3038 12.2776 11.0348 12.2776 9.46947C12.2776 7.90407 13.5466 6.63507 15.112 6.63507C16.6774 6.63507 17.9464 7.90407 17.9464 9.46947Z" fill="#F1F5F9"/>
<path fill-rule="evenodd" clip-rule="evenodd" d="M15.112 11.9637C16.4896 11.9637 17.6063 10.847 17.6063 9.46947C17.6063 8.09187 16.4896 6.97517 15.112 6.97517C13.7345 6.97517 12.6177 8.09187 12.6177 9.46947C12.6177 10.847 13.7345 11.9637 15.112 11.9637ZM15.112 12.3038C16.6774 12.3038 17.9464 11.0348 17.9464 9.46947C17.9464 7.90407 16.6774 6.63507 15.112 6.63507C13.5466 6.63507 12.2776 7.90407 12.2776 9.46947C12.2776 11.0348 13.5466 12.3038 15.112 12.3038Z" fill="#0F172A"/>
<path d="M17.2662 9.49777C17.2662 13.5834 13.614 16.8955 9.52831 16.8955C5.44261 16.8955 1.79041 13.5834 1.79041 9.49777C1.79041 5.41197 5.4426 2.09998 9.52841 2.09998C13.614 2.09998 17.2662 5.41197 17.2662 9.49777Z" fill="#F1F5F9"/>
<path fill-rule="evenodd" clip-rule="evenodd" d="M9.52831 16.5554C13.4462 16.5554 16.9261 13.3762 16.9261 9.49777C16.9261 5.61937 13.4462 2.44008 9.52831 2.44008C5.6105 2.44008 2.13061 5.61937 2.13061 9.49777C2.13061 13.3762 5.6105 16.5554 9.52831 16.5554ZM9.52831 16.8955C13.614 16.8955 17.2662 13.5834 17.2662 9.49777C17.2662 5.41197 13.614 2.09998 9.52831 2.09998C5.44261 2.09998 1.79041 5.41197 1.79041 9.49777C1.79041 13.5834 5.4425 16.8955 9.52831 16.8955Z" fill="#0F172A"/>
<path fill-rule="evenodd" clip-rule="evenodd" d="M7.30046 6.52356C7.31376 6.55376 7.32486 6.57876 7.33306 6.59856L7.01856 6.72816C7.00784 6.70264 6.99684 6.67724 6.98556 6.65196C6.81196 6.25696 6.25516 4.99036 6.49656 2.81816L6.83456 2.85576C6.60286 4.94126 7.13276 6.14326 7.30046 6.52356ZM7.37316 2.68186C7.26126 3.52086 7.28966 4.32986 7.42847 4.99626C7.43394 5.02544 7.42776 5.0556 7.41124 5.08027C7.39472 5.10494 7.36918 5.12215 7.34012 5.1282C7.31105 5.13425 7.28077 5.12866 7.25578 5.11262C7.23079 5.09659 7.21308 5.0714 7.20646 5.04246C7.06186 4.34826 7.03346 3.51336 7.14846 2.65186L7.37316 2.68186ZM11.7258 6.52356C11.7125 6.55376 11.7015 6.57876 11.6933 6.59856L12.0078 6.72816C12.0161 6.70796 12.0273 6.68256 12.0407 6.65196C12.2144 6.25696 12.7711 4.99036 12.5298 2.81816L12.1917 2.85576C12.4234 4.94126 11.8935 6.14326 11.7258 6.52356ZM11.6531 2.68186C11.765 3.52086 11.7367 4.32986 11.5978 4.99626C11.5931 5.02508 11.5998 5.05458 11.6164 5.07861C11.6329 5.10265 11.6581 5.11938 11.6867 5.12533C11.7153 5.13128 11.7451 5.12598 11.7698 5.11055C11.7946 5.09512 11.8125 5.07073 11.8198 5.04246C11.9644 4.34826 11.9928 3.51336 11.8779 2.65186L11.6531 2.68186Z" fill="#0F172A"/>
<path d="M16.1892 10.178C16.1892 12.761 13.2197 14.8548 9.55669 14.8548C5.89369 14.8548 2.92419 12.761 2.92419 10.1781C2.92419 7.59508 5.89369 5.50128 9.55669 5.50128C13.2197 5.50128 16.1892 7.59508 16.1892 10.178Z" fill="#94A3B8"/>
<path fill-rule="evenodd" clip-rule="evenodd" d="M14.1159 13.2997C15.2742 12.483 15.9624 11.376 15.9624 10.1781C15.9624 8.98008 15.2742 7.87308 14.1159 7.05638C12.9582 6.24008 11.347 5.72808 9.55669 5.72808C7.76639 5.72808 6.15519 6.23998 4.99749 7.05638C3.83919 7.87318 3.15099 8.98018 3.15099 10.1781C3.15099 11.376 3.83919 12.483 4.99749 13.2997C6.15519 14.116 7.76639 14.6281 9.55669 14.6281C11.347 14.6281 12.9582 14.116 14.1159 13.2997ZM9.55669 14.8548C13.2197 14.8548 16.1892 12.761 16.1892 10.1781C16.1892 7.59508 13.2197 5.50128 9.55669 5.50128C5.89369 5.50128 2.92419 7.59518 2.92419 10.1781C2.92419 12.761 5.89369 14.8548 9.55669 14.8548Z" fill="#0F172A"/>
<path d="M15.5656 10.178C15.5656 12.3226 12.5936 14.0612 9.55669 14.0612C6.51979 14.0612 3.66119 12.3226 3.66119 10.178C3.66119 8.03348 6.51979 6.29498 9.55669 6.29498C12.5936 6.29498 15.5656 8.03348 15.5656 10.178Z" fill="#64748B"/>
<path d="M13.0185 7.86496C13.1284 7.94156 13.0272 8.07986 12.9055 8.02396C11.9686 7.59356 10.7855 7.31526 9.55669 7.31526C8.36199 7.31526 6.93239 7.69866 5.89389 8.28196C5.77699 8.34756 5.65429 8.21306 5.75619 8.12606C6.66079 7.35376 8.02749 6.86176 9.55669 6.86176C10.9057 6.86176 12.1281 7.24466 13.0185 7.86496Z" fill="#E2E8F0"/>
<path d="M9.15991 15.8751C9.15991 16.063 9.1091 16.2153 9.0465 16.2153C8.9839 16.2153 8.93311 16.063 8.93311 15.8751C8.93311 15.6873 8.9839 15.535 9.0465 15.535C9.1091 15.535 9.15991 15.6873 9.15991 15.8751ZM9.61341 15.8751C9.61341 16.063 9.56261 16.2153 9.50001 16.2153C9.43741 16.2153 9.38661 16.063 9.38661 15.8751C9.38661 15.6873 9.43741 15.535 9.50001 15.535C9.56261 15.535 9.61341 15.6873 9.61341 15.8751ZM10.0669 15.8751C10.0669 16.063 10.0161 16.2153 9.95351 16.2153C9.89091 16.2153 9.84011 16.063 9.84011 15.8751C9.84011 15.6873 9.89091 15.535 9.95351 15.535C10.0161 15.535 10.0669 15.6873 10.0669 15.8751Z" fill="#0F172A"/>
</g>
</g>
<defs>
<filter id="filter0_d_1_975" x="0.599976" y="2.09998" width="17.8" height="15.2955" filterUnits="userSpaceOnUse" color-interpolation-filters="sRGB">
<feFlood flood-opacity="0" result="BackgroundImageFix"/>
<feColorMatrix in="SourceAlpha" type="matrix" values="0 0 0 0 0 0 0 0 0 0 0 0 0 0 0 0 0 0 127 0" result="hardAlpha"/>
<feOffset dy="0.5"/>
<feColorMatrix type="matrix" values="0 0 0 0 0 0 0 0 0 0 0 0 0 0 0 0 0 0 0.16 0"/>
<feBlend mode="normal" in2="BackgroundImageFix" result="effect1_dropShadow_1_975"/>
<feBlend mode="normal" in="SourceGraphic" in2="effect1_dropShadow_1_975" result="shape"/>
</filter>
<clipPath id="clip0_1_975">
<rect width="18" height="18" fill="white" transform="translate(0.5 0.5)"/>
</clipPath>
</defs>
</svg>
