<svg width="19" height="19" viewBox="0 0 19 19" fill="none" xmlns="http://www.w3.org/2000/svg">
<g clip-path="url(#clip0_1_937)">
<path d="M6.48757 1.07322L0.669128 1.60337L1.36401 9.21675L5.15651 8.87026L4.77972 4.73127L6.80756 4.54572C8.81646 4.36206 10.4315 5.97145 10.6493 8.3685L14.3736 8.02958C13.9911 3.8319 10.4505 0.711575 6.49136 1.07132L6.48757 1.07322Z" fill="#FF0082"/>
<path d="M14.6046 10.419C14.6046 12.8274 13.141 14.575 11.1264 14.575H9.09103V10.4114H5.28339V18.0645H11.1264C15.1064 18.0645 18.3441 14.6356 18.3441 10.419C18.3441 10.4171 18.3441 10.4152 18.3441 10.4114H14.6046C14.6046 10.4114 14.6046 10.4152 14.6046 10.419Z" fill="#FF0082"/>
</g>
<defs>
<clipPath id="clip0_1_937">
<rect width="17.9874" height="17.23" fill="white" transform="translate(0.506348 0.880005)"/>
</clipPath>
</defs>
</svg>
