<svg width="19" height="19" viewBox="0 0 19 19" fill="none" xmlns="http://www.w3.org/2000/svg">
<g clip-path="url(#clip0_1_4336)">
<path d="M9.07817 2.39923L3.56152 5.58427C3.30047 5.73499 3.13965 6.01354 3.13965 6.31498V12.6851C3.13965 12.9865 3.30047 13.265 3.56152 13.4158L9.07817 16.6008C9.33923 16.7515 9.66086 16.7515 9.92192 16.6008L15.4386 13.4158C15.6996 13.265 15.8604 12.9865 15.8604 12.6851V6.31498C15.8604 6.01354 15.6996 5.73499 15.4386 5.58427L9.92192 2.39923C9.66086 2.24851 9.33923 2.24851 9.07817 2.39923Z" fill="#FF00B9"/>
<path fill-rule="evenodd" clip-rule="evenodd" d="M7.7563 10.0113V14.1044H6.02014V4.88358H7.7563V8.31033H11.1243V4.88358H12.8604V14.1044H11.1243V10.0113H7.7563Z" fill="white"/>
<path d="M9.92192 0.775425L16.8448 4.77236C17.1059 4.92308 17.2667 5.20163 17.2667 5.50307V13.4969C17.2667 13.7984 17.1059 14.0769 16.8448 14.2276L9.92192 18.2246C9.66086 18.3753 9.33923 18.3753 9.07817 18.2246L2.15527 14.2276C1.89422 14.0769 1.7334 13.7984 1.7334 13.4969V5.50307C1.7334 5.20163 1.89422 4.92308 2.15527 4.77236L9.07817 0.775425C9.33923 0.624704 9.66086 0.624704 9.92192 0.775425ZM9.07817 2.39922L3.56152 5.58426C3.30047 5.73498 3.13965 6.01353 3.13965 6.31497V12.685C3.13965 12.9865 3.30047 13.265 3.56152 13.4157L9.07817 16.6008C9.33923 16.7515 9.66086 16.7515 9.92192 16.6008L15.4386 13.4157C15.6996 13.265 15.8604 12.9865 15.8604 12.685V6.31497C15.8604 6.01353 15.6996 5.73498 15.4386 5.58426L9.92192 2.39922C9.66086 2.2485 9.33923 2.2485 9.07817 2.39922Z" fill="#E1007E"/>
</g>
<defs>
<clipPath id="clip0_1_4336">
<rect width="18" height="18" fill="white" transform="translate(0.5 0.5)"/>
</clipPath>
</defs>
</svg>
