<svg width="19" height="19" viewBox="0 0 19 19" fill="none" xmlns="http://www.w3.org/2000/svg">
<g clip-path="url(#clip0_1_944)">
<path d="M9.5 0.5C4.52975 0.5 0.5 4.52975 0.5 9.5C0.5 14.4703 4.52975 18.5 9.5 18.5C14.4703 18.5 18.5 14.4703 18.5 9.5C18.5 4.52975 14.4703 0.5 9.5 0.5ZM9.692 2.23475C11.5445 2.2385 13.529 3.74075 14.1155 4.45625L14.2985 4.68125C15.5285 6.17675 16.9753 7.93625 16.9753 9.90575C16.9753 12.695 14.7402 14.2618 12.3568 15.5367C11.282 16.1112 10.1217 16.6677 8.79575 16.6677C5.3885 16.6677 2.52125 13.991 2.52125 10.5837C2.52125 10.0542 2.64875 9.515 2.77775 8.97125C2.86925 8.585 2.96075 8.1965 3.008 7.8095C3.419 4.40525 5.23325 2.71325 9.3245 2.2535C9.44653 2.23999 9.56923 2.23423 9.692 2.23475Z" fill="black"/>
</g>
<defs>
<clipPath id="clip0_1_944">
<rect width="18" height="18" fill="white" transform="translate(0.5 0.5)"/>
</clipPath>
</defs>
</svg>
