<svg width="19" height="11" viewBox="0 0 19 11" fill="none" xmlns="http://www.w3.org/2000/svg">
<g clip-path="url(#clip0_1_1033)">
<path d="M9.5 0.0809326C7.1 0.0809326 5.6 1.28093 5 3.68093C5.9 2.48093 6.95 2.03093 8.15 2.33093C8.83467 2.5021 9.32403 2.9988 9.8657 3.54863C10.7481 4.4443 11.7694 5.48093 14 5.48093C16.4 5.48093 17.9 4.28093 18.5 1.88093C17.6 3.08093 16.55 3.53093 15.35 3.23093C14.6653 3.05977 14.176 2.56307 13.6343 2.01323C12.7519 1.11757 11.7306 0.0809326 9.5 0.0809326ZM5 5.48093C2.6 5.48093 1.1 6.68093 0.5 9.08093C1.4 7.88093 2.45 7.43093 3.65 7.73093C4.33467 7.9021 4.82403 8.3988 5.3657 8.94863C6.2481 9.8443 7.26937 10.8809 9.5 10.8809C11.9 10.8809 13.4 9.68093 14 7.28093C13.1 8.48093 12.05 8.93093 10.85 8.63093C10.1653 8.45977 9.67597 7.96307 9.1343 7.41323C8.2519 6.51757 7.23063 5.48093 5 5.48093Z" fill="url(#paint0_linear_1_1033)"/>
</g>
<defs>
<linearGradient id="paint0_linear_1_1033" x1="-49.5" y1="345.681" x2="1505.09" y2="1242.02" gradientUnits="userSpaceOnUse">
<stop stop-color="#2298BD"/>
<stop offset="1" stop-color="#0ED7B5"/>
</linearGradient>
<clipPath id="clip0_1_1033">
<rect width="18" height="10.8281" fill="white" transform="translate(0.5 0.0809326)"/>
</clipPath>
</defs>
</svg>
