<svg width="19" height="19" viewBox="0 0 19 19" fill="none" xmlns="http://www.w3.org/2000/svg">
<g clip-path="url(#clip0_1_927)">
<path d="M6.867 12.7686C6.0035 11.9046 5.49558 10.7166 5.49558 9.36664C5.49558 8.01664 6.0035 6.82864 6.8162 5.96464C7.52731 5.20864 7.52731 4.02063 6.8162 3.26463C6.10509 2.50863 4.98762 2.50863 4.27651 3.26463C2.85429 4.83064 1.94 6.99064 1.94 9.36664C1.94 11.7426 2.85429 13.9026 4.32731 15.4686C5.03841 16.2246 6.15589 16.2246 6.867 15.4686C7.52731 14.7126 7.52731 13.5246 6.867 12.7686Z" fill="#FFD85F"/>
<path d="M6.86697 5.96463C7.67967 5.04663 8.79711 4.50663 10.067 4.50663C11.3368 4.50663 12.4543 5.04663 13.2669 5.91063C13.9781 6.66663 15.0955 6.66663 15.8066 5.91063C16.5177 5.15463 16.5177 3.96662 15.8066 3.21062C14.3336 1.69862 12.3019 0.726624 10.067 0.726624C7.83202 0.726624 5.80029 1.69862 4.32728 3.26462C3.61617 4.02062 3.61617 5.20863 4.32728 5.96463C5.03839 6.66663 6.15586 6.66663 6.86697 5.96463Z" fill="#3BB4E7"/>
<path d="M13.2669 12.7686C12.4543 13.6866 11.3368 14.2266 10.067 14.2266C8.79711 14.2266 7.67967 13.6866 6.86697 12.8226C6.15586 12.0666 5.03839 12.0666 4.32728 12.8226C3.61617 13.5786 3.61617 14.7666 4.32728 15.5226C5.80029 17.0346 7.83202 18.0066 10.067 18.0066C12.3019 18.0066 14.3336 17.0346 15.8066 15.4686C16.5177 14.7126 16.5177 13.5246 15.8066 12.7686C15.0955 12.0666 13.9781 12.0666 13.2669 12.7686Z" fill="#ED5C68"/>
<path d="M5.5971 6.50462C6.57896 6.50462 7.37489 5.65844 7.37489 4.61462C7.37489 3.57079 6.57896 2.72461 5.5971 2.72461C4.61527 2.72461 3.81934 3.57079 3.81934 4.61462C3.81934 5.65844 4.61527 6.50462 5.5971 6.50462Z" fill="#308BC5"/>
<path d="M5.5971 16.0086C6.57896 16.0086 7.37489 15.1625 7.37489 14.1186C7.37489 13.0748 6.57896 12.2286 5.5971 12.2286C4.61527 12.2286 3.81934 13.0748 3.81934 14.1186C3.81934 15.1625 4.61527 16.0086 5.5971 16.0086Z" fill="#D5465F"/>
</g>
<defs>
<clipPath id="clip0_1_927">
<rect width="18" height="18" fill="white" transform="translate(0.5 0.5)"/>
</clipPath>
</defs>
</svg>
