<svg width="19" height="19" viewBox="0 0 19 19" fill="none" xmlns="http://www.w3.org/2000/svg">
<path d="M8.91225 0.504831C8.87363 0.50834 8.75081 0.520621 8.6403 0.529394C6.09097 0.759236 3.70307 2.13478 2.19067 4.24897C1.3485 5.4245 0.809867 6.75795 0.606342 8.17031C0.534407 8.66333 0.525635 8.80897 0.525635 9.47744C0.525635 10.1459 0.534407 10.2915 0.606342 10.7846C1.0941 14.155 3.49253 16.9868 6.74538 18.0359C7.32789 18.2237 7.94199 18.3518 8.6403 18.429C8.91225 18.4588 10.0877 18.4588 10.3597 18.429C11.5651 18.2956 12.5862 17.9974 13.5933 17.4833C13.7477 17.4044 13.7775 17.3833 13.7565 17.3657C13.7424 17.3552 13.0845 16.4727 12.2949 15.4059L10.8597 13.4672L9.06138 10.8056C8.07184 9.34236 7.25774 8.14574 7.25071 8.14574C7.24369 8.144 7.23666 9.32656 7.23317 10.7705C7.22789 13.2988 7.22615 13.4005 7.19456 13.4602C7.14892 13.5462 7.11384 13.5812 7.04015 13.6198C6.98399 13.6479 6.93487 13.6532 6.66994 13.6532H6.3664L6.28574 13.6023C6.23307 13.569 6.19451 13.5251 6.16815 13.4742L6.13133 13.3953L6.13481 9.87749L6.1401 6.3579L6.19451 6.28949C6.22256 6.25262 6.2822 6.20528 6.3243 6.18246C6.39625 6.14738 6.4243 6.14385 6.72784 6.14385C7.08579 6.14385 7.14543 6.1579 7.2384 6.25964C7.26476 6.28774 8.23851 7.75451 9.40348 9.52128C10.5685 11.2881 12.1616 13.7006 12.9441 14.8849L14.3653 17.0376L14.4372 16.9903C15.0741 16.5762 15.7478 15.9867 16.2812 15.3726C17.4164 14.069 18.148 12.4794 18.3936 10.7846C18.4656 10.2915 18.4744 10.1459 18.4744 9.47744C18.4744 8.80897 18.4656 8.66333 18.3936 8.17031C17.9059 4.79989 15.5075 1.9681 12.2546 0.918897C11.6809 0.732918 11.0703 0.604838 10.386 0.527639C10.2176 0.510094 9.05784 0.490795 8.91225 0.504831ZM12.5862 5.93333C12.6704 5.97544 12.7388 6.0561 12.7634 6.14036C12.7774 6.18595 12.7809 7.16149 12.7774 9.3599L12.7721 12.5145L12.216 11.6618L11.658 10.8091V8.51595C11.658 7.03338 11.6651 6.2 11.6756 6.15964C11.7037 6.06138 11.7651 5.98421 11.8493 5.93856C11.9212 5.90174 11.9475 5.89821 12.223 5.89821C12.4827 5.89821 12.5283 5.90174 12.5862 5.93333Z" fill="black"/>
</svg>
