<svg width="19" height="19" viewBox="0 0 19 19" fill="none" xmlns="http://www.w3.org/2000/svg">
<g clip-path="url(#clip0_1_861)">
<path d="M16.2559 9.49999H11.9567V10.7283H14.9047C14.4748 12.5709 13.1236 14.1063 11.3425 14.7205L4.27951 7.65747C5.01652 5.50786 7.10471 3.97243 9.49999 3.97243C11.3425 3.97243 13.0008 4.89369 14.0449 6.30628L14.9661 5.50786C13.7378 3.84959 11.7724 2.74408 9.49999 2.74408C6.30628 2.74408 3.60392 5.01652 2.92833 8.02597L11.0354 16.1331C13.9834 15.396 16.2559 12.6937 16.2559 9.49999ZM2.74408 9.5614C2.74408 11.2811 3.41967 12.9394 4.70943 14.2291C5.9992 15.5189 7.71888 16.1945 9.37715 16.1945L2.74408 9.5614Z" fill="white"/>
<path d="M9.49998 0.901581C4.77084 0.901581 0.90155 4.77087 0.90155 9.50001C0.90155 14.2291 4.77084 18.0984 9.49998 18.0984C14.2291 18.0984 18.0984 14.2291 18.0984 9.50001C18.0984 4.77087 14.2291 0.901581 9.49998 0.901581ZM4.70942 14.2906C3.41966 13.0008 2.74407 11.2811 2.74407 9.62284L9.43856 16.2559C7.71887 16.1945 5.99919 15.5803 4.70942 14.2906ZM10.974 16.0717L2.92832 8.02599C3.60391 5.01654 6.30627 2.7441 9.49998 2.7441C11.7724 2.7441 13.7378 3.84961 14.9661 5.50788L14.0449 6.3063C13.0008 4.89371 11.3425 3.97245 9.49998 3.97245C7.1047 3.97245 5.07793 5.50788 4.2795 7.65749L11.3425 14.7205C13.1236 14.1063 14.4748 12.5709 14.9047 10.7284H11.9567V9.50001H16.2559C16.2559 12.6937 13.9834 15.3961 10.974 16.0717Z" fill="#663399"/>
</g>
<defs>
<clipPath id="clip0_1_861">
<rect width="18" height="18" fill="white" transform="translate(0.5 0.5)"/>
</clipPath>
</defs>
</svg>
