<svg width="19" height="19" viewBox="0 0 19 19" fill="none" xmlns="http://www.w3.org/2000/svg">
<g clip-path="url(#clip0_1_967)">
<path d="M13.325 12.35C14.65 13.2 15.25 14.4 15.25 16.125C14.125 17.55 12.2 18.325 9.92499 18.325C6.09999 18.325 3.37499 16.425 2.79999 13.15H6.47499C6.94999 14.65 8.19999 15.35 9.89999 15.35C11.925 15.375 13.3 14.275 13.325 12.35ZM9.39999 0.599976C13.325 0.599976 15.575 2.67498 16.15 5.57498H12.6C12.2 4.42498 11.225 3.52498 9.44999 3.52498C7.52499 3.54998 6.22499 4.64998 6.14999 6.39998C4.89999 5.64998 4.17499 4.29998 4.22499 2.84998C5.29999 1.44998 7.14999 0.599976 9.39999 0.599976Z" fill="#FC5C52"/>
<path d="M4.22498 2.875C4.22498 5.25 5.69998 6.675 8.64998 7.425L11.775 8.15C14.575 8.8 16.275 10.4 16.275 13C16.3 14.125 15.925 15.225 15.25 16.125C15.25 13.525 13.9 12.125 10.675 11.275L7.59998 10.575C5.12498 10.025 3.22498 8.7 3.22498 5.875C3.22498 4.8 3.57498 3.725 4.22498 2.875Z" fill="#FA1607"/>
</g>
<defs>
<clipPath id="clip0_1_967">
<rect width="18" height="18" fill="white" transform="translate(0.5 0.5)"/>
</clipPath>
</defs>
</svg>
