<svg width="19" height="13" viewBox="0 0 19 13" fill="none" xmlns="http://www.w3.org/2000/svg">
<g clip-path="url(#clip0_1_920)">
<path fill-rule="evenodd" clip-rule="evenodd" d="M7.50136 10.4168C7.58666 10.4656 7.67804 10.5143 7.76942 10.5569C8.45177 10.8737 8.76861 11.0809 8.76861 11.5195C8.76861 11.9886 8.38476 12.3725 7.91564 12.3725C7.5501 12.3725 7.24548 12.1409 7.12364 11.8181C6.67889 12.2689 6.06965 12.5491 5.38731 12.5491C4.0409 12.5491 2.95036 11.4586 2.95036 10.1122C2.95036 9.98427 2.96864 9.8563 2.98692 9.7284C1.73798 9.36286 0.775389 8.32103 0.556063 7.01727C0.525601 6.8284 0.507324 6.63953 0.507324 6.44458C0.507324 6.24963 0.525601 6.06076 0.556063 5.8719C0.781481 4.57423 1.73798 3.52633 2.98692 3.16079C2.98616 3.15545 2.98539 3.15012 2.98463 3.1448C2.96715 3.02266 2.95036 2.90542 2.95036 2.77698C2.95036 1.43057 4.0409 0.340027 5.38731 0.340027C6.06356 0.340027 6.67889 0.620276 7.12364 1.07111C7.24548 0.748215 7.5501 0.516706 7.91564 0.516706C8.38476 0.516706 8.76861 0.900525 8.76861 1.36964C8.76861 1.84484 8.45177 2.05198 7.76942 2.36879C7.70182 2.40033 7.63756 2.43521 7.5717 2.47096C7.54852 2.48354 7.52515 2.49623 7.50136 2.50891C7.44653 2.53938 7.3917 2.56983 7.34296 2.60029C7.30032 2.62467 7.26376 2.64903 7.22721 2.6734C7.21502 2.67949 7.20436 2.68711 7.1937 2.69473C7.18304 2.70234 7.17237 2.70996 7.16019 2.71605C6.95305 2.85008 6.76418 3.00848 6.58141 3.17298C6.57532 3.17603 6.57075 3.18059 6.56619 3.18516C6.56161 3.18974 6.55705 3.1943 6.55095 3.19735C6.47784 3.27045 6.40474 3.34356 6.33772 3.41667C6.32859 3.42581 6.31944 3.43647 6.31031 3.44713C6.30117 3.4578 6.29203 3.46846 6.28289 3.4776C6.25412 3.51356 6.2244 3.54858 6.19486 3.58341C6.14933 3.63706 6.10421 3.69024 6.06356 3.74566C5.49697 4.50112 5.14971 5.44543 5.14971 6.46286C5.14971 7.48028 5.49088 8.42458 6.06356 9.18005C6.13058 9.27141 6.20369 9.36286 6.28289 9.44815C6.29203 9.45726 6.30117 9.46789 6.31031 9.4786C6.31944 9.48923 6.32859 9.49987 6.33772 9.50906C6.3879 9.56837 6.44149 9.62081 6.49593 9.67412C6.51421 9.69203 6.53258 9.71002 6.55095 9.7284C6.55705 9.73144 6.56161 9.73599 6.56619 9.74055C6.57075 9.74511 6.57532 9.74966 6.58141 9.7527C6.76418 9.91721 6.95305 10.0756 7.16019 10.2097C7.17237 10.2158 7.18304 10.2234 7.1937 10.231C7.20436 10.2386 7.21502 10.2462 7.22721 10.2523C7.24548 10.2645 7.26529 10.2767 7.28509 10.2889C7.30489 10.3011 7.32469 10.3132 7.34296 10.3254C7.37038 10.3406 7.39627 10.3559 7.42216 10.3711C7.44805 10.3863 7.47395 10.4016 7.50136 10.4168ZM15.9697 3.18516C17.2187 3.55071 18.1813 4.5925 18.4006 5.89627C18.4311 6.07904 18.4493 6.274 18.4493 6.50551C18.4493 6.70046 18.4311 6.88932 18.4006 7.07819C18.1752 8.3759 17.2187 9.42377 15.9697 9.78931L15.972 9.8053C15.9895 9.92744 16.0063 10.0447 16.0063 10.1731C16.0063 11.5195 14.9158 12.6101 13.5694 12.6101C12.8931 12.6101 12.2778 12.3298 11.833 11.879C11.7112 12.2018 11.4065 12.4334 11.041 12.4334C10.5719 12.4334 10.1881 12.0496 10.1881 11.5804C10.1881 11.1053 10.5049 10.8981 11.1872 10.5813C11.2548 10.5497 11.3191 10.5149 11.385 10.4792C11.4081 10.4665 11.4315 10.4539 11.4553 10.4412C11.5101 10.4107 11.565 10.3803 11.6137 10.3498C11.6563 10.3254 11.6929 10.3011 11.7295 10.2767C11.7416 10.2706 11.7523 10.263 11.763 10.2553C11.7736 10.2477 11.7843 10.2401 11.7965 10.2341C12.0036 10.1 12.1925 9.94159 12.3753 9.77708C12.3814 9.77404 12.3859 9.76949 12.3905 9.76493C12.395 9.76037 12.3996 9.75582 12.4057 9.7527C12.4788 9.67964 12.5519 9.6065 12.6189 9.53344C12.6281 9.52425 12.6372 9.51361 12.6463 9.50298C12.6555 9.49227 12.6646 9.48164 12.6738 9.47253C12.7025 9.43656 12.7323 9.40147 12.7618 9.36669C12.8073 9.31306 12.8525 9.25982 12.8931 9.20443C13.4597 8.44896 13.8069 7.50465 13.8069 6.48723C13.8069 5.4698 13.4658 4.52548 12.8931 3.77003C12.8261 3.67864 12.753 3.58726 12.6738 3.50197C12.6646 3.49283 12.6555 3.48217 12.6463 3.47151C12.6372 3.46084 12.6281 3.45018 12.6189 3.44104C12.5519 3.36184 12.4788 3.28874 12.4057 3.22172C12.3996 3.21867 12.395 3.2141 12.3905 3.20954C12.3859 3.20496 12.3814 3.20039 12.3753 3.19735C12.1925 3.03286 12.0036 2.88055 11.7965 2.74042C11.7843 2.73433 11.7736 2.72671 11.763 2.7191C11.7523 2.71148 11.7416 2.70387 11.7295 2.69778C11.7112 2.68559 11.6914 2.6734 11.6716 2.66121C11.6518 2.64903 11.632 2.63685 11.6137 2.62467C11.5863 2.60943 11.5604 2.5942 11.5345 2.57898C11.5086 2.56374 11.4827 2.54851 11.4553 2.53328C11.37 2.48454 11.2787 2.4358 11.1872 2.39316C10.511 2.07026 10.1881 1.86312 10.1881 1.39401C10.1881 0.924894 10.5719 0.541076 11.041 0.541076C11.4065 0.541076 11.7112 0.772585 11.833 1.09548C12.2778 0.644646 12.887 0.364397 13.5694 0.364397C14.9158 0.364397 16.0063 1.45493 16.0063 2.80135C16.0063 2.92928 15.988 3.05723 15.9697 3.18516Z" fill="#034AD8"/>
<path d="M12.1377 6.46896C12.1377 5.00069 10.9497 3.81268 9.48141 3.81268C8.01315 3.81268 6.82513 5.00069 6.82513 6.46896C6.82513 7.93722 8.01315 9.12522 9.48141 9.12522C10.9497 9.12522 12.1377 7.93722 12.1377 6.46896Z" fill="#034AD8"/>
</g>
<defs>
<clipPath id="clip0_1_920">
<rect width="17.9854" height="12.31" fill="white" transform="translate(0.507324 0.340027)"/>
</clipPath>
</defs>
</svg>
