<svg width="19" height="15" viewBox="0 0 19 15" fill="none" xmlns="http://www.w3.org/2000/svg">
<g clip-path="url(#clip0_1_1011)">
<path d="M2.49083 2.24577C2.45691 1.2803 3.21617 0.390015 4.24247 0.390015H14.7588C15.7851 0.390015 16.5443 1.2803 16.5104 2.24577C16.4779 3.17318 16.5201 4.37453 16.8253 5.3541C17.1315 6.33667 17.6478 6.95775 18.4933 7.03757V7.94246C17.6478 8.02228 17.1315 8.64335 16.8253 9.62593C16.5201 10.6055 16.4779 11.8068 16.5104 12.7343C16.5443 13.6997 15.7851 14.59 14.7588 14.59H4.24247C3.21617 14.59 2.45691 13.6997 2.49088 12.7343C2.52345 11.8068 2.48112 10.6055 2.17589 9.62593C1.86978 8.64335 1.35224 8.02228 0.506653 7.94246V7.03757C1.3522 6.95775 1.86978 6.33667 2.17589 5.3541C2.48112 4.37453 2.52345 3.17318 2.49083 2.24577Z" fill="url(#paint0_linear_1_1011)"/>
<g filter="url(#filter0_d_1_1011)">
<path d="M9.8901 11.2647C11.5517 11.2647 12.5529 10.4587 12.5529 9.12934C12.5529 8.12446 11.8385 7.39694 10.7777 7.28178V7.23991C11.5571 7.1143 12.1686 6.39726 12.1686 5.59649C12.1686 4.45552 11.2594 3.71228 9.87386 3.71228H6.75641V11.2647H9.8901ZM7.96876 4.67009H9.58162C10.4584 4.67009 10.9563 5.05738 10.9563 5.75872C10.9563 6.50719 10.3772 6.92587 9.32724 6.92587H7.96876V4.67009ZM7.96876 10.307V7.82089H9.57077C10.7181 7.82089 11.3135 8.23959 11.3135 9.05609C11.3135 9.87254 10.7344 10.307 9.64112 10.307H7.96876Z" fill="url(#paint1_linear_1_1011)"/>
<path d="M9.8901 11.2647C11.5517 11.2647 12.5529 10.4587 12.5529 9.12934C12.5529 8.12446 11.8385 7.39694 10.7777 7.28178V7.23991C11.5571 7.1143 12.1686 6.39726 12.1686 5.59649C12.1686 4.45552 11.2594 3.71228 9.87386 3.71228H6.75641V11.2647H9.8901ZM7.96876 4.67009H9.58162C10.4584 4.67009 10.9563 5.05738 10.9563 5.75872C10.9563 6.50719 10.3772 6.92587 9.32724 6.92587H7.96876V4.67009ZM7.96876 10.307V7.82089H9.57077C10.7181 7.82089 11.3135 8.23959 11.3135 9.05609C11.3135 9.87254 10.7344 10.307 9.64112 10.307H7.96876Z" stroke="white" stroke-width="0.157778"/>
</g>
</g>
<defs>
<filter id="filter0_d_1_1011" x="4.15305" y="1.74009" width="11.0032" height="12.7591" filterUnits="userSpaceOnUse" color-interpolation-filters="sRGB">
<feFlood flood-opacity="0" result="BackgroundImageFix"/>
<feColorMatrix in="SourceAlpha" type="matrix" values="0 0 0 0 0 0 0 0 0 0 0 0 0 0 0 0 0 0 127 0" result="hardAlpha"/>
<feOffset dy="0.631111"/>
<feGaussianBlur stdDeviation="1.26222"/>
<feColorMatrix type="matrix" values="0 0 0 0 0 0 0 0 0 0 0 0 0 0 0 0 0 0 0.15 0"/>
<feBlend mode="normal" in2="BackgroundImageFix" result="effect1_dropShadow_1_1011"/>
<feBlend mode="normal" in="SourceGraphic" in2="effect1_dropShadow_1_1011" result="shape"/>
</filter>
<linearGradient id="paint0_linear_1_1011" x1="3.17933" y1="0.765827" x2="18.783" y2="13.2681" gradientUnits="userSpaceOnUse">
<stop stop-color="#9013FE"/>
<stop offset="1" stop-color="#6610F2"/>
</linearGradient>
<linearGradient id="paint1_linear_1_1011" x1="7.30469" y1="4.20939" x2="10.7696" y2="10.1242" gradientUnits="userSpaceOnUse">
<stop stop-color="white"/>
<stop offset="1" stop-color="#F1E5FC"/>
</linearGradient>
<clipPath id="clip0_1_1011">
<rect width="17.9867" height="14.2" fill="white" transform="translate(0.506653 0.390015)"/>
</clipPath>
</defs>
</svg>
