<svg width="19" height="19" viewBox="0 0 19 19" fill="none" xmlns="http://www.w3.org/2000/svg">
<g clip-path="url(#clip0_1_868)">
<path d="M9.50239 0.5L1.72491 5.00108L1.72587 13.9896L9.52105 18.4722L17.2985 13.971L17.2986 4.9875L9.50239 0.5Z" fill="#0E83CD"/>
<path d="M5.85376 13.3777L5.85435 9.49085L5.85493 5.60401L6.5611 5.19104L7.2375 5.5913L7.2448 7.17961L7.2521 8.76792H9.51204H11.772L11.7793 7.18066L11.7866 5.59339L12.4735 5.19648L13.1698 5.60401L13.1695 9.48828L13.1691 13.3725L12.4797 13.7576L11.7866 13.3676L11.7793 11.7881L11.772 10.2086H9.51201H7.25207L7.24477 11.7877L7.24686 13.3746L6.55368 13.7811L5.85376 13.3777Z" fill="white"/>
</g>
<defs>
<clipPath id="clip0_1_868">
<rect width="15.6203" height="18" fill="white" transform="translate(1.68982 0.5)"/>
</clipPath>
</defs>
</svg>
