<svg width="19" height="19" viewBox="0 0 19 19" fill="none" xmlns="http://www.w3.org/2000/svg">
<g clip-path="url(#clip0_1_997)">
<path d="M11.3529 8.49414C12.2265 7.75297 12.5971 3.4912 12.9941 1.95591C13.3382 0.420615 14.9265 0.500027 14.9265 0.500027C14.9265 0.500027 14.5294 1.21473 14.6618 1.74414C14.8471 2.27356 15.9853 2.72356 15.9853 2.72356L15.7206 3.41179C15.7206 3.41179 15.2177 3.33238 14.9265 3.9412C14.6088 4.55003 15.1118 10.5588 15.1118 10.5588C15.1118 10.5588 13.2853 14.1853 13.2853 15.7206C13.2853 17.2294 14.0265 18.5 14.0265 18.5H12.9941C12.9941 18.5 11.5118 16.753 11.2206 15.853C10.9029 14.9794 11.0353 14.1059 11.0353 14.1059C11.0353 14.1059 9.42059 14 7.99118 14.1059C6.56177 14.1853 5.60883 15.4294 5.42353 16.1177C5.26471 16.7794 5.1853 18.5 5.1853 18.5H4.39118C3.91471 17.0177 3.51765 16.4618 3.72942 15.7206C4.31177 13.603 4.20589 12.4118 4.04706 11.8824C3.91471 11.353 3.01471 10.903 3.01471 10.903C3.46471 9.9765 3.91471 9.55297 5.87353 9.50003C7.83236 9.44708 10.4794 9.23532 11.3529 8.52061V8.49414Z" fill="#EC4815"/>
<path d="M6.27061 15.5883C6.27061 15.5883 6.45591 17.5206 7.56767 18.5H8.49414C7.56767 17.4412 7.43532 14.6353 7.43532 14.6353C6.98532 14.7941 6.32355 15.35 6.24414 15.5883H6.27061Z" fill="#EC4815"/>
</g>
<defs>
<clipPath id="clip0_1_997">
<rect width="12.9706" height="18" fill="white" transform="translate(3.01471 0.5)"/>
</clipPath>
</defs>
</svg>
