<svg width="19" height="19" viewBox="0 0 19 19" fill="none" xmlns="http://www.w3.org/2000/svg">
<g clip-path="url(#clip0_1_855)">
<path fill-rule="evenodd" clip-rule="evenodd" d="M18.5 0.5V18.5H0.5V0.5H18.5ZM12.7979 6.98735C12.6527 6.98945 12.5656 7.0594 12.5263 7.19854C12.4846 7.34647 12.4835 7.49661 12.5211 7.64454C12.7613 8.59012 13.0041 9.53505 13.2449 10.4805C13.4704 11.3656 13.6954 12.2508 13.9187 13.1365C13.98 13.3794 14.0174 13.6246 13.9696 13.8764C13.9384 14.0407 13.883 14.1935 13.7903 14.3331C13.7587 14.3808 13.7197 14.3994 13.6646 14.3849C13.6186 14.3728 13.5724 14.3613 13.5264 14.349C13.4575 14.3304 13.3891 14.3097 13.3198 14.2927C13.1246 14.245 12.9857 14.3227 12.9248 14.5157C12.872 14.6829 12.8666 14.8552 12.8867 15.0274C12.8945 15.0949 12.9118 15.1666 12.9449 15.225C13.0206 15.3587 13.141 15.4444 13.2844 15.4989C13.4841 15.5748 13.6923 15.5832 13.9019 15.5758C14.0596 15.5703 14.2101 15.531 14.3504 15.4589C14.613 15.3238 14.785 15.1049 14.908 14.8428C15.0576 14.5238 15.144 14.185 15.2123 13.8416C15.3274 13.2634 15.4376 12.6841 15.5498 12.1053L15.9617 9.98037C16.1035 9.24872 16.2455 8.51711 16.387 7.78538C16.4193 7.61816 16.4541 7.45184 16.4246 7.27885C16.3903 7.07735 16.29 6.98634 16.0862 6.9863C15.9394 6.98628 15.7926 6.98552 15.6459 6.98937C15.5688 6.99139 15.5016 7.02198 15.4437 7.07617C15.3427 7.17065 15.3048 7.29438 15.2803 7.42284C15.2281 7.69628 15.1806 7.9706 15.1308 8.24449L14.8051 10.0336C14.7463 10.356 14.6874 10.6784 14.6259 11.0156C14.6181 10.9887 14.6133 10.975 14.6102 10.9609C14.3821 9.92762 14.1545 8.89423 13.9259 7.86101C13.8836 7.66985 13.8469 7.47671 13.7908 7.28954C13.7336 7.09912 13.6121 6.98718 13.4143 6.98664C13.2089 6.98607 13.0034 6.98438 12.7979 6.98735ZM10.6048 4.19976C10.473 4.20595 10.3407 4.1996 10.2086 4.20127C10.0374 4.20344 9.9302 4.27607 9.88211 4.44107C9.8538 4.53825 9.84065 4.64194 9.83545 4.74344C9.80124 5.41023 9.77116 6.07723 9.73945 6.74416C9.73566 6.82392 9.73015 6.9036 9.72516 6.98838C9.61625 6.98838 9.5136 6.98595 9.41111 6.98907C9.31229 6.99207 9.22575 7.02993 9.17448 7.11648C9.14159 7.17196 9.11004 7.23665 9.10582 7.29911C9.09376 7.47793 9.09076 7.65783 9.09462 7.83708C9.09662 7.9303 9.12506 8.02175 9.1857 8.09768C9.25894 8.18941 9.36205 8.2101 9.47126 8.21235C9.55346 8.21405 9.63572 8.21268 9.72633 8.21268V8.29254C9.72633 9.33835 9.72464 10.3841 9.72749 11.4299C9.72823 11.6993 9.73628 11.9692 9.7536 12.238C9.7718 12.5203 9.82677 12.7974 9.92774 13.0631C10.1218 13.5735 10.493 13.8529 11.0371 13.8913C11.1449 13.8989 11.253 13.9012 11.3613 13.9019L11.6861 13.9021C11.7739 13.9025 11.8624 13.9012 11.9496 13.8918C12.0966 13.876 12.2032 13.7768 12.2295 13.6302C12.2656 13.4283 12.2619 13.2237 12.2371 13.0219C12.2144 12.8367 12.0923 12.739 11.9058 12.7351C11.7499 12.7319 11.5939 12.7332 11.438 12.733C11.2391 12.7327 11.1964 12.7017 11.1282 12.5138C11.0386 12.2668 11.0194 12.0094 11.019 11.7503C11.0173 10.5908 11.018 9.43123 11.0179 8.27168C11.0179 8.25388 11.0196 8.23608 11.0206 8.21543C11.0402 8.2144 11.0564 8.21284 11.0725 8.21283C11.2853 8.21264 11.4981 8.21395 11.711 8.21227C11.9074 8.21072 12.0461 8.09513 12.0628 7.89893C12.0781 7.71872 12.0822 7.53608 12.072 7.35558C12.0605 7.1503 11.9569 6.9723 11.6637 6.9846C11.4695 6.99273 11.2748 6.98614 11.0803 6.98614H11.0178L11.0179 5.84792L11.0173 4.78286C11.0172 4.70962 11.0145 4.63589 11.0059 4.56324C10.9815 4.35756 10.8781 4.18693 10.6048 4.19976ZM8.01361 4.49653C7.97684 4.2797 7.81682 4.17454 7.60125 4.22341C7.512 4.24365 7.42364 4.26793 7.33509 4.29118C6.91724 4.4009 6.49944 4.51084 6.08166 4.62084C5.91651 4.66433 5.81909 4.77121 5.80009 4.94024C5.78868 5.04183 5.7886 5.14509 5.78916 5.24756C5.79 5.3996 5.78719 5.55244 5.80177 5.70342C5.82238 5.91694 5.99507 6.06089 6.22323 5.99065C6.33839 5.95521 6.45702 5.93108 6.58144 5.89999L6.58137 11.6266L6.58376 13.2944C6.58409 13.4049 6.60154 13.5179 6.62907 13.6251C6.6776 13.814 6.78711 13.8901 6.98083 13.8901H7.61932C7.8298 13.8901 7.94011 13.8145 7.9883 13.6107C8.01752 13.4871 8.03263 13.3573 8.03274 13.2302C8.03515 10.3937 8.03475 7.5572 8.03376 4.72067C8.03373 4.6459 8.02613 4.57031 8.01361 4.49653ZM4.4367 4.21666C4.34287 4.22661 4.25087 4.25646 4.15883 4.28038C3.73368 4.39089 3.30867 4.50194 2.88389 4.6139C2.68013 4.66761 2.58038 4.78929 2.57416 4.99959C2.56869 5.18471 2.56948 5.37006 2.57033 5.55528C2.5706 5.61364 2.57533 5.67285 2.58607 5.73015C2.62399 5.93235 2.78746 6.05463 2.99861 5.99211C3.11557 5.95747 3.23517 5.93172 3.36318 5.89956L3.36333 13.1799C3.36334 13.2478 3.35921 13.3165 3.36841 13.3833C3.38183 13.4807 3.39514 13.5804 3.42729 13.6726C3.48171 13.8285 3.58142 13.8897 3.74652 13.89C3.96666 13.8904 4.18681 13.8902 4.40695 13.8901C4.60851 13.8901 4.71735 13.8177 4.76561 13.6202C4.79743 13.49 4.81261 13.3525 4.81273 13.2183C4.81531 10.3894 4.81481 7.56057 4.81399 4.73173C4.81395 4.65506 4.80801 4.57773 4.79695 4.50185C4.76799 4.30334 4.63563 4.19556 4.4367 4.21666Z" fill="#222222"/>
</g>
<defs>
<clipPath id="clip0_1_855">
<rect width="18" height="18" fill="white" transform="translate(0.5 0.5)"/>
</clipPath>
</defs>
</svg>
