<svg width="19" height="19" viewBox="0 0 19 19" fill="none" xmlns="http://www.w3.org/2000/svg">
<g clip-path="url(#clip0_1_884)">
<path opacity="0.3" d="M10.0159 0.989596C10.0081 1.02307 10.0076 1.05783 10.0145 1.0915C10.0145 1.0915 10.1253 1.80818 9.99981 2.1272L4.7895 15.6768C4.4176 16.6715 4.91606 17.7828 5.90993 18.1655C6.90381 18.5482 8.01815 18.0569 8.40889 17.0689H8.40944L13.6206 3.51901C13.7225 3.254 14.3035 2.7403 14.3035 2.7403C14.3312 2.71998 14.3541 2.6939 14.3708 2.66387L14.3735 2.65833L14.3818 2.64172C14.5162 2.29224 13.6494 1.63372 12.4462 1.17126C11.2429 0.708796 10.1579 0.616303 10.0236 0.96578C10.0214 0.971319 10.02 0.977965 10.0181 0.984057L10.0164 0.989596H10.0159Z" fill="black"/>
<path d="M9.86552 0.874401C9.85744 0.907839 9.85697 0.942664 9.86414 0.976309C9.86414 0.976309 9.97491 1.69299 9.84946 2.012L4.6386 15.5618C4.26669 16.5566 4.7646 17.6676 5.76152 18.0503C6.75845 18.433 7.86974 17.9414 8.26048 16.9537L13.4722 3.40382C13.5741 3.1388 14.1551 2.62511 14.1551 2.62511C14.1828 2.6047 14.2057 2.57853 14.2224 2.5484L14.2251 2.54286L14.2334 2.52625C14.3677 2.17677 13.5012 1.51825 12.295 1.05579C11.0887 0.593324 10.0068 0.501109 9.87217 0.850586C9.86995 0.856124 9.86857 0.862771 9.86663 0.868863L9.86497 0.874401H9.86552Z" fill="url(#paint0_linear_1_884)"/>
<path d="M11.4999 7.00408L7.74428 16.7761C7.46735 17.4768 6.6604 17.8409 5.94511 17.5654C5.22982 17.2898 4.84212 16.4674 5.10603 15.7612L7.50695 9.51771C7.50695 9.51771 7.80686 9.03393 8.39588 8.68695C8.98489 8.33996 9.47034 8.41556 10.1239 8.12479C10.7774 7.83402 11.4996 7.00104 11.4996 7.00104L11.4999 7.00408Z" fill="url(#paint1_linear_1_884)"/>
<path d="M10.6857 1.20422C10.7616 1.00705 11.4257 1.08044 12.175 1.36871C12.9244 1.65699 13.4666 2.04773 13.3935 2.24462C13.3204 2.44151 12.6536 2.36841 11.9042 2.08013C11.1548 1.79185 10.6126 1.40167 10.6857 1.20422Z" fill="#333333"/>
<path opacity="0.3" d="M9.86414 0.97631C9.86414 0.97631 9.97048 1.69714 9.84946 2.012L4.6386 15.5618C4.26669 16.556 4.7646 17.6673 5.76152 18.05C5.93405 18.1165 6.10989 18.1558 6.28546 18.1718C5.61531 17.6678 5.32814 16.7665 5.63552 15.944H5.63497L10.7398 2.66277C10.7398 2.66277 10.0447 2.01034 9.86414 0.973541V0.97631Z" fill="white"/>
<path opacity="0.5" fill-rule="evenodd" clip-rule="evenodd" d="M8.03229 9.71684C8.03229 9.63321 8.09958 9.56592 8.18321 9.56592C8.26684 9.56592 8.33413 9.63321 8.33413 9.71684C8.33413 9.80047 8.26684 9.86776 8.18321 9.86776C8.09958 9.86776 8.03229 9.80047 8.03229 9.71684Z" fill="white"/>
<path opacity="0.5" d="M8.9481 10.8115C8.9481 10.7816 8.95398 10.752 8.96542 10.7244C8.97686 10.6968 8.99363 10.6717 9.01477 10.6506C9.03591 10.6294 9.061 10.6127 9.08862 10.6012C9.11623 10.5898 9.14583 10.5839 9.17573 10.5839C9.20562 10.5839 9.23522 10.5898 9.26284 10.6012C9.29046 10.6127 9.31555 10.6294 9.33669 10.6506C9.35782 10.6717 9.37459 10.6968 9.38603 10.7244C9.39747 10.752 9.40336 10.7816 9.40336 10.8115C9.40336 10.8414 9.39747 10.871 9.38603 10.8986C9.37459 10.9263 9.35782 10.9513 9.33669 10.9725C9.31555 10.9936 9.29046 11.0104 9.26284 11.0218C9.23522 11.0333 9.20562 11.0392 9.17573 11.0392C9.14583 11.0392 9.11623 11.0333 9.08862 11.0218C9.061 11.0104 9.03591 10.9936 9.01477 10.9725C8.99363 10.9513 8.97686 10.9263 8.96542 10.8986C8.95398 10.871 8.9481 10.8414 8.9481 10.8115ZM7.23754 12.1136C7.23754 12.0575 7.24859 12.002 7.27005 11.9502C7.29151 11.8984 7.32296 11.8513 7.36261 11.8117C7.40226 11.772 7.44934 11.7406 7.50115 11.7191C7.55295 11.6976 7.60848 11.6866 7.66456 11.6866C7.72063 11.6866 7.77616 11.6976 7.82797 11.7191C7.87978 11.7406 7.92685 11.772 7.9665 11.8117C8.00616 11.8513 8.03761 11.8984 8.05907 11.9502C8.08053 12.002 8.09157 12.0575 8.09157 12.1136C8.09157 12.1697 8.08053 12.2252 8.05907 12.277C8.03761 12.3288 8.00616 12.3759 7.9665 12.4156C7.92685 12.4552 7.87978 12.4867 7.82797 12.5081C7.77616 12.5296 7.72063 12.5406 7.66456 12.5406C7.60848 12.5406 7.55295 12.5296 7.50115 12.5081C7.44934 12.4867 7.40226 12.4552 7.36261 12.4156C7.32296 12.3759 7.29151 12.3288 7.27005 12.277C7.24859 12.2252 7.23754 12.1697 7.23754 12.1136ZM6.74573 12.9062C6.74573 12.8458 6.76971 12.7879 6.8124 12.7452C6.85509 12.7025 6.91299 12.6785 6.97336 12.6785C7.03373 12.6785 7.09163 12.7025 7.13432 12.7452C7.17701 12.7879 7.20099 12.8458 7.20099 12.9062C7.20099 12.9665 7.17701 13.0244 7.13432 13.0671C7.09163 13.1098 7.03373 13.1338 6.97336 13.1338C6.91299 13.1338 6.85509 13.1098 6.8124 13.0671C6.76971 13.0244 6.74573 12.9665 6.74573 12.9062Z" fill="white"/>
<path opacity="0.5" fill-rule="evenodd" clip-rule="evenodd" d="M7.72931 14.5918C7.72931 14.5081 7.7966 14.4409 7.88023 14.4409C7.96386 14.4409 8.03116 14.5081 8.03116 14.5918C8.03116 14.6754 7.96386 14.7427 7.88023 14.7427C7.7966 14.7427 7.72931 14.6754 7.72931 14.5918Z" fill="white"/>
</g>
<defs>
<linearGradient id="paint0_linear_1_884" x1="237.785" y1="808.256" x2="687.318" y2="861.475" gradientUnits="userSpaceOnUse">
<stop stop-color="#919191"/>
<stop offset="1" stop-color="white"/>
</linearGradient>
<linearGradient id="paint1_linear_1_884" x1="176.403" y1="458.843" x2="449.118" y2="497.585" gradientUnits="userSpaceOnUse">
<stop stop-color="#990000"/>
<stop offset="1" stop-color="#E80000"/>
</linearGradient>
<clipPath id="clip0_1_884">
<rect width="18" height="18" fill="white" transform="translate(0.5 0.5)"/>
</clipPath>
</defs>
</svg>
