<svg width="19" height="17" viewBox="0 0 19 17" fill="none" xmlns="http://www.w3.org/2000/svg">
<g clip-path="url(#clip0_1_961)">
<path d="M1.405 0.409973H17.595C17.8335 0.409973 18.0623 0.504736 18.231 0.673414C18.3996 0.842093 18.4944 1.07087 18.4944 1.30942V15.7005C18.4944 15.9391 18.3996 16.1679 18.231 16.3365C18.0623 16.5052 17.8335 16.6 17.595 16.6H1.405C1.16645 16.6 0.937674 16.5052 0.768995 16.3365C0.600317 16.1679 0.505554 15.9391 0.505554 15.7005V1.30942C0.505554 1.07087 0.600317 0.842093 0.768995 0.673414C0.937674 0.504736 1.16645 0.409973 1.405 0.409973ZM2.30444 2.20886V14.8011H16.6956V2.20886H2.30444ZM5.00278 11.653H3.20389V5.35692H5.00278L6.80167 7.15581L8.60055 5.35692H10.3994V11.653H8.60055V8.05525L6.80167 9.85414L5.00278 8.05525V11.653ZM14.8967 8.9547H16.6956L13.9972 11.653L11.2989 8.9547H13.0978V5.35692H14.8967V8.9547Z" fill="black"/>
</g>
<defs>
<clipPath id="clip0_1_961">
<rect width="17.9889" height="16.19" fill="white" transform="translate(0.505554 0.409973)"/>
</clipPath>
</defs>
</svg>
