<svg width="37" height="37" viewBox="0 0 37 37" fill="none" xmlns="http://www.w3.org/2000/svg">
<path d="M25.5503 11.9096C21.6841 8.04347 15.4157 8.04347 11.5495 11.9096C7.68336 15.7759 7.68336 22.0442 11.5495 25.9104C15.4157 29.7765 21.6841 29.7765 25.5503 25.9104C29.4164 22.0442 29.4164 15.7759 25.5503 11.9096Z" fill="url(#paint0_linear_59_18)"/>
<path d="M16.6643 18.6122V19.6443C16.6643 19.6443 14.1132 19.661 13.9053 19.6511C13.588 19.6364 13.3738 19.4269 13.3646 19.1655C13.3547 18.8703 13.5459 18.6688 13.885 18.6319C14.0328 18.6157 14.183 18.6204 14.4156 18.6122H16.6643Z" fill="white"/>
<path d="M18.7488 18.6122V19.6443C18.7488 19.6443 16.332 19.661 16.135 19.6511C15.8345 19.6364 15.6316 19.4269 15.6229 19.1655C15.6135 18.8703 15.7945 18.6688 16.1158 18.6319C16.2558 18.6157 16.3982 18.6204 16.6184 18.6122H18.7488Z" fill="white"/>
<path d="M21.354 18.6122V19.6443C21.354 19.6443 18.8029 19.661 18.595 19.6511C18.2777 19.6364 18.0635 19.4269 18.0543 19.1655C18.0444 18.8703 18.2355 18.6688 18.5747 18.6319C18.7225 18.6157 18.8727 18.6204 19.1053 18.6122H21.354Z" fill="white"/>
<path d="M20.4851 19.6545V18.6224C20.4851 18.6224 23.0362 18.6057 23.2441 18.6156C23.5614 18.6303 23.7756 18.8398 23.7848 19.1012C23.7947 19.3964 23.6036 19.5979 23.2644 19.6348C23.1167 19.651 22.9664 19.6463 22.7338 19.6545H20.4851Z" fill="white"/>
<path d="M18.9221 15.1408C18.9221 15.1408 20.1744 15.1408 23.0413 15.1408C23.183 15.1408 23.33 15.1231 23.4598 15.1967C23.6486 15.3038 23.7757 15.456 23.7848 15.6866C23.7939 15.9313 23.6619 16.0938 23.4684 16.2088C22.9088 16.5412 22.346 16.8671 21.7837 17.1946C21.6068 17.2979 21.4315 17.4049 21.2492 17.4985C20.9713 17.6415 20.6672 17.5651 20.5192 17.3253C20.3524 17.0543 20.4068 16.7714 20.6758 16.5692C20.7928 16.481 20.9232 16.411 21.1167 16.2885C19.4908 16.2885 18.9221 16.2885 18.9221 16.2885V15.1408Z" fill="white"/>
<path d="M17.5323 15.1389H19.7903V16.3547H17.5323V15.1389Z" fill="white"/>
<path d="M18.2272 15.1408C18.2272 15.1408 16.9749 15.1408 14.1079 15.1408C13.9663 15.1408 13.8193 15.1231 13.6894 15.1967C13.5008 15.3038 13.3735 15.456 13.3645 15.6866C13.3554 15.9313 13.4874 16.0938 13.6809 16.2088C14.2405 16.5412 14.8033 16.8671 15.3656 17.1946C15.5425 17.2979 15.7178 17.4049 15.9001 17.4985C16.178 17.6415 16.4821 17.5651 16.6302 17.3253C16.797 17.0543 16.7424 16.7714 16.4736 16.5692C16.3565 16.481 16.2261 16.411 16.0326 16.2885C17.6585 16.2885 18.2272 16.2885 18.2272 16.2885V15.1408Z" fill="white"/>
<path d="M18.2272 23.1265C18.2272 23.1265 16.9749 23.1265 14.1079 23.1265C13.9663 23.1265 13.8193 23.1443 13.6894 23.0706C13.5008 22.9636 13.3735 22.8114 13.3645 22.5806C13.3554 22.3359 13.4874 22.1735 13.6809 22.0584C14.2405 21.7261 14.8033 21.4002 15.3656 21.0727C15.5425 20.9694 15.7178 20.8624 15.9 20.7688C16.178 20.6257 16.4821 20.7021 16.6302 20.942C16.797 21.2131 16.7424 21.4959 16.4736 21.6982C16.3565 21.7864 16.2261 21.8562 16.0326 21.9789C17.6585 21.9789 18.2272 21.9789 18.2272 21.9789V23.1265Z" fill="white"/>
<path d="M19.6171 23.1283H17.5328V21.9126L19.6171 21.9125V23.1283Z" fill="white"/>
<path d="M18.9221 23.1265C18.9221 23.1265 20.1744 23.1265 23.0413 23.1265C23.183 23.1265 23.33 23.1443 23.4598 23.0706C23.6486 22.9636 23.7757 22.8114 23.7848 22.5806C23.7939 22.3359 23.6619 22.1735 23.4684 22.0584C22.9088 21.7261 22.346 21.4002 21.7837 21.0727C21.6068 20.9694 21.4315 20.8624 21.2492 20.7688C20.9713 20.6257 20.6672 20.7021 20.5192 20.942C20.3524 21.2131 20.4068 21.4959 20.6758 21.6982C20.7928 21.7864 20.9232 21.8562 21.1167 21.9789C19.4908 21.9789 18.9221 21.9789 18.9221 21.9789V23.1265Z" fill="white"/>
<rect x="1.54993" y="1.91003" width="34" height="34" rx="17" stroke="#394852" stroke-width="2"/>
<defs>
<linearGradient id="paint0_linear_59_18" x1="8.64991" y1="18.91" x2="28.4499" y2="18.91" gradientUnits="userSpaceOnUse">
<stop stop-color="#05966A"/>
<stop offset="1" stop-color="#24B0C7"/>
</linearGradient>
</defs>
</svg>
